<?xml version="1.0" encoding="UTF-8"?>
<svg version="1.1" xmlns="http://www.w3.org/2000/svg" width="440" height="567">
<path d="M0 0 C1.03432915 -0.00503792 1.03432915 -0.00503792 2.08955383 -0.01017761 C4.38320695 -0.01972204 6.67678721 -0.02163309 8.97045898 -0.02270508 C10.56412283 -0.02591751 12.15778637 -0.02928158 13.75144958 -0.03279114 C17.10155927 -0.03879271 20.45164313 -0.04063021 23.80175781 -0.04003906 C28.07987796 -0.0399379 32.35783043 -0.05353781 36.63591099 -0.07081127 C39.93290454 -0.08197671 43.22985831 -0.0839568 46.52686882 -0.08342934 C48.10280874 -0.08460462 49.67874985 -0.08900092 51.2546711 -0.0967617 C53.47067773 -0.10664439 55.68633047 -0.10365033 57.90234375 -0.09765625 C59.16063492 -0.09908127 60.41892609 -0.10050629 61.71534729 -0.10197449 C65.86026347 0.17584153 69.39790371 1.06910321 73.40405273 2.14526367 C75.6699788 2.25109486 75.6699788 2.25109486 77.66967773 1.90307617 C78.84929077 1.75757324 78.84929077 1.75757324 80.05273438 1.60913086 C80.91116943 1.49730469 81.76960449 1.38547852 82.65405273 1.27026367 C94.91377198 -0.06059238 107.14806488 -0.09098523 119.46655273 -0.10473633 C120.45328979 -0.10955017 121.44002686 -0.11436401 122.45666504 -0.11932373 C125.30515033 -0.13121559 128.15321716 -0.12836426 131.00170898 -0.12036133 C131.86029007 -0.12433929 132.71887115 -0.12831726 133.60346985 -0.13241577 C138.20252251 -0.09688811 142.18486145 0.09432993 146.40405273 2.14526367 C148.69548361 5.14348976 148.65020649 7.9715296 148.63452148 11.66088867 C148.63331299 12.74047852 148.63210449 13.82006836 148.63085938 14.93237305 C148.61140259 16.64650391 148.61140259 16.64650391 148.59155273 18.39526367 C148.58438232 19.55864258 148.57721191 20.72202148 148.56982422 21.9206543 C148.34193359 46.26950196 148.34193359 46.26950196 146.40405273 50.14526367 C141.78405273 50.14526367 137.16405273 50.14526367 132.40405273 50.14526367 C132.07405273 51.46526367 131.74405273 52.78526367 131.40405273 54.14526367 C126.54997815 56.51006924 120.78308394 57.24404388 115.40405273 57.14526367 C112.40405273 55.77026367 112.40405273 55.77026367 110.40405273 54.14526367 C108.18432817 52.7868241 108.18432817 52.7868241 104.52905273 53.83276367 C100.72788506 54.37775867 100.72788506 54.37775867 97.96655273 52.39526367 C96.40405273 50.14526367 96.40405273 50.14526367 95.40405273 47.14526367 C94.08405273 50.11526367 92.76405273 53.08526367 91.40405273 56.14526367 C88.77832212 55.50228864 86.1534797 54.85601956 83.52905273 54.20776367 C82.78268555 54.02536133 82.03631836 53.84295898 81.26733398 53.6550293 C75.63061523 52.25854492 75.63061523 52.25854492 73.40405273 51.14526367 C71.70041452 50.91904286 69.99076573 50.73637894 68.27905273 50.58276367 C67.36897461 50.49897461 66.45889648 50.41518555 65.52124023 50.32885742 C64.82256836 50.26827148 64.12389648 50.20768555 63.40405273 50.14526367 C63.40405273 52.45526367 63.40405273 54.76526367 63.40405273 57.14526367 C59.73754027 57.23322749 56.07130356 57.28597615 52.40405273 57.33276367 C51.3740918 57.35790039 50.34413086 57.38303711 49.28295898 57.40893555 C42.90290653 57.46989146 38.21863296 56.80795005 32.40405273 54.14526367 C32.40405273 53.48526367 32.40405273 52.82526367 32.40405273 52.14526367 C31.41405273 51.81526367 30.42405273 51.48526367 29.40405273 51.14526367 C29.40405273 50.48526367 29.40405273 49.82526367 29.40405273 49.14526367 C28.37280273 49.18651367 27.34155273 49.22776367 26.27905273 49.27026367 C20.95268677 49.30844551 15.80695458 48.31258911 10.57592773 47.38745117 C7.52089634 46.8793177 7.52089634 46.8793177 5.48828125 48.11132812 C1.75099763 49.96530448 -2.30936023 49.47262621 -6.40844727 49.45776367 C-7.2856543 49.47387695 -8.16286133 49.48999023 -9.06665039 49.5065918 C-14.6868862 49.51079541 -18.5953637 48.73083144 -23.59594727 46.14526367 C-23.59594727 45.15526367 -23.59594727 44.16526367 -23.59594727 43.14526367 C-24.25594727 43.14526367 -24.91594727 43.14526367 -25.59594727 43.14526367 C-27.26172352 39.81371116 -26.71602582 36.07990309 -26.69360352 32.41870117 C-26.69218857 31.55588531 -26.69077362 30.69306946 -26.6893158 29.80410767 C-26.68370914 27.04279137 -26.67115554 24.28155555 -26.65844727 21.52026367 C-26.65343312 19.65047317 -26.64887007 17.78068141 -26.64477539 15.91088867 C-26.63373755 11.3223159 -26.61646846 6.73380344 -26.59594727 2.14526367 C-26.02561768 2.12020752 -25.45528809 2.09515137 -24.86767578 2.06933594 C-22.2976857 1.95369818 -19.72809199 1.83082743 -17.15844727 1.70776367 C-16.26061523 1.66844727 -15.3627832 1.62913086 -14.43774414 1.58862305 C-13.58374023 1.54672852 -12.72973633 1.50483398 -11.84985352 1.46166992 C-11.05909424 1.42501221 -10.26833496 1.38835449 -9.45361328 1.35058594 C-6.13722301 0.98403525 -3.83349991 0.01166462 0 0 Z " fill="#E50E0C" transform="translate(236.595947265625,247.854736328125)"/>
<path d="M0 0 C1.13211914 -0.01836914 1.13211914 -0.01836914 2.28710938 -0.03710938 C7.17538622 -0.0498062 11.174455 0.63329419 15.8125 2.1875 C16.1425 1.8575 16.4725 1.5275 16.8125 1.1875 C19.03970379 1.02725717 21.27188019 0.93570167 23.50390625 0.87109375 C24.19307632 0.85026733 24.8822464 0.82944092 25.59230042 0.8079834 C27.85308398 0.74163055 30.11398692 0.68296479 32.375 0.625 C33.92106173 0.58213198 35.46712293 0.53924454 37.01318359 0.49633789 C49.61344312 0.16086167 62.20807404 0.06726406 74.8125 0.1875 C75.3075 1.1775 75.3075 1.1775 75.8125 2.1875 C76.8025 1.8575 77.7925 1.5275 78.8125 1.1875 C84.81266028 -0.50951503 91.16594541 -0.77021907 96.8125 2.1875 C99.37651125 7.57529303 99.06951961 13.00615073 99.0078125 18.8359375 C99.0049826 19.84846588 99.00215271 20.86099426 98.99923706 21.90420532 C98.98808254 25.12375938 98.96298646 28.34303065 98.9375 31.5625 C98.9274641 33.75129805 98.91833931 35.94010049 98.91015625 38.12890625 C98.8881587 43.48186658 98.85472824 48.83466308 98.8125 54.1875 C97.56178297 54.68778918 96.30788565 55.18013156 95.05273438 55.66918945 C94.35482788 55.94422806 93.65692139 56.21926666 92.93786621 56.50263977 C89.70517916 57.5443138 86.6854097 57.47229547 83.3125 57.375 C82.0853125 57.34792969 80.858125 57.32085937 79.59375 57.29296875 C78.6759375 57.25816406 77.758125 57.22335937 76.8125 57.1875 C76.8125 53.5575 76.8125 49.9275 76.8125 46.1875 C74.1725 46.1875 71.5325 46.1875 68.8125 46.1875 C68.4825 49.8175 68.1525 53.4475 67.8125 57.1875 C51.72044887 58.01896528 35.89590941 58.23501664 19.8125 57.1875 C19.3175 51.2475 19.3175 51.2475 18.8125 45.1875 C17.471875 45.661875 16.13125 46.13625 14.75 46.625 C3.98485585 50.15783368 -7.06862241 49.77591108 -18.1875 48.1875 C-18.5175 32.6775 -18.8475 17.1675 -19.1875 1.1875 C-12.70044927 0.53879493 -6.48084585 0.00562086 0 0 Z " fill="#DF1111" transform="translate(103.1875,247.8125)"/>
<path d="M0 0 C0.78955078 -0.01224609 1.57910156 -0.02449219 2.39257812 -0.03710938 C6.61238256 -0.04772079 10.21541915 -0.04293408 13.9375 2.1875 C16.04163878 5.12188632 16.20893035 7.69791999 16.1875 11.25 C16.19265625 12.10722656 16.1978125 12.96445312 16.203125 13.84765625 C15.9375 16.1875 15.9375 16.1875 13.9375 19.1875 C13.2775 19.1875 12.6175 19.1875 11.9375 19.1875 C12.33559111 21.27446247 12.7567428 23.3570344 13.1875 25.4375 C13.41953125 26.59765625 13.6515625 27.7578125 13.890625 28.953125 C14.82718704 32.68384908 14.82718704 32.68384908 18.9375 36.1875 C18.9375 24.6375 18.9375 13.0875 18.9375 1.1875 C24.4753125 1.001875 24.4753125 1.001875 30.125 0.8125 C31.2802417 0.75787598 32.4354834 0.70325195 33.62573242 0.64697266 C40.95747307 0.52773651 40.95747307 0.52773651 43.77832031 2.42675781 C46.16549926 5.1464791 46.92740702 7.0932989 47.3125 10.6875 C46.9375 14.1875 46.9375 14.1875 46.25 17.3125 C45.62556378 20.23983733 45.62556378 20.23983733 47.4375 22.5 C49.61088066 26.39397367 49.13377286 29.95511692 47.9375 34.1875 C46.83203125 36.44921875 46.83203125 36.44921875 44.9375 38.1875 C41.58203125 38.578125 41.58203125 38.578125 37.75 38.4375 C35.84154297 38.38335937 35.84154297 38.38335937 33.89453125 38.328125 C32.91871094 38.28171875 31.94289063 38.2353125 30.9375 38.1875 C30.9375 40.4975 30.9375 42.8075 30.9375 45.1875 C15.12440511 45.78715388 15.12440511 45.78715388 8.9375 42.1875 C4.8037102 37.76289082 3.37844104 33.22904349 3.078125 27.265625 C2.93401703 25.13602938 2.51054656 23.23937638 1.9375 21.1875 C1.2775 21.1875 0.6175 21.1875 -0.0625 21.1875 C-0.0625 26.1375 -0.0625 31.0875 -0.0625 36.1875 C-3.6925 36.1875 -7.3225 36.1875 -11.0625 36.1875 C-11.92754743 32.72731027 -12.17963493 30.27178675 -12.16015625 26.765625 C-12.15693359 25.74082031 -12.15371094 24.71601563 -12.15039062 23.66015625 C-12.14201172 22.59667969 -12.13363281 21.53320312 -12.125 20.4375 C-12.12048828 19.35855469 -12.11597656 18.27960938 -12.11132812 17.16796875 C-12.09955727 14.50775617 -12.08311399 11.84765635 -12.0625 9.1875 C-13.0525 9.1875 -14.0425 9.1875 -15.0625 9.1875 C-15.0625 6.5475 -15.0625 3.9075 -15.0625 1.1875 C-10.00167101 0.17208487 -5.13774948 0.00421472 0 0 Z " fill="#090001" transform="translate(263.0625,253.8125)"/>
<path d="M0 0 C10.89 0 21.78 0 33 0 C33 2.64 33 5.28 33 8 C30.69 8 28.38 8 26 8 C26.23187012 8.54938232 26.46374023 9.09876465 26.70263672 9.66479492 C27.76056857 12.17216215 28.81779042 14.67982815 29.875 17.1875 C30.23980469 18.05181641 30.60460937 18.91613281 30.98046875 19.80664062 C31.33496094 20.64775391 31.68945312 21.48886719 32.0546875 22.35546875 C32.54171143 23.51018677 32.54171143 23.51018677 33.03857422 24.68823242 C34.04832863 27.11620716 35.02340032 29.55850079 36 32 C36 21.44 36 10.88 36 0 C39.63 0 43.26 0 47 0 C51 6.625 51 6.625 51 10 C51.66 10 52.32 10 53 10 C53 6.7 53 3.4 53 0 C56.96 0 60.92 0 65 0 C65 12.21 65 24.42 65 37 C62.03 37 59.06 37 56 37 C52.67052426 33.37373145 51.19167507 29.47661291 49 25 C48.67 30.94 48.34 36.88 48 43 C44.37 43 40.74 43 37 43 C37 41.35 37 39.7 37 38 C35.700625 38.495 35.700625 38.495 34.375 39 C31.04281725 39.98731341 28.44840462 40.16420974 25 40 C24.01 37.69 23.02 35.38 22 33 C19.03 33 16.06 33 13 33 C12.34 35.64 11.68 38.28 11 41 C7.7 40.34 4.4 39.68 1 39 C2.27970194 29.22909933 3.97465089 19.64066177 6 10 C4.02 10 2.04 10 0 10 C0 6.7 0 3.4 0 0 Z " fill="#120001" transform="translate(314,255)"/>
<path d="M0 0 C0.9861026 -0.00517639 1.9722052 -0.01035278 2.9881897 -0.01568604 C5.83732352 -0.02746139 8.6860183 -0.02419626 11.53515625 -0.015625 C12.39377258 -0.01958282 13.25238892 -0.02354065 14.13702393 -0.02761841 C18.73604024 0.00779573 22.71835174 0.19908717 26.9375 2.25 C29.22893088 5.24822608 29.18365375 8.07626593 29.16796875 11.765625 C29.16676025 12.84521484 29.16555176 13.92480469 29.16430664 15.03710938 C29.14484985 16.75124023 29.14484985 16.75124023 29.125 18.5 C29.11782959 19.66337891 29.11065918 20.82675781 29.10327148 22.02539062 C28.87538086 46.37423829 28.87538086 46.37423829 26.9375 50.25 C22.3175 50.25 17.6975 50.25 12.9375 50.25 C12.6075 51.57 12.2775 52.89 11.9375 54.25 C7.08342542 56.61480557 1.3165312 57.34878021 -4.0625 57.25 C-7.0625 55.875 -7.0625 55.875 -9.0625 54.25 C-11.28222457 52.89156043 -11.28222457 52.89156043 -14.9375 53.9375 C-18.73866768 54.482495 -18.73866768 54.482495 -21.5 52.5 C-23.0625 50.25 -23.0625 50.25 -24.0625 47.25 C-25.3825 50.22 -26.7025 53.19 -28.0625 56.25 C-30.68823061 55.60702496 -33.31307303 54.96075589 -35.9375 54.3125 C-36.68386719 54.13009766 -37.43023437 53.94769531 -38.19921875 53.75976562 C-43.8359375 52.36328125 -43.8359375 52.36328125 -46.0625 51.25 C-47.76613822 51.02377919 -49.47578701 50.84111527 -51.1875 50.6875 C-52.09757812 50.60371094 -53.00765625 50.51992188 -53.9453125 50.43359375 C-54.64398438 50.37300781 -55.34265625 50.31242187 -56.0625 50.25 C-56.0625 52.56 -56.0625 54.87 -56.0625 57.25 C-59.72901247 57.33796382 -63.39524918 57.39071247 -67.0625 57.4375 C-68.09246094 57.46263672 -69.12242187 57.48777344 -70.18359375 57.51367188 C-76.56364621 57.57462779 -81.24791977 56.91268638 -87.0625 54.25 C-87.0625 53.59 -87.0625 52.93 -87.0625 52.25 C-88.0525 51.92 -89.0425 51.59 -90.0625 51.25 C-90.0625 50.59 -90.0625 49.93 -90.0625 49.25 C-91.279375 49.270625 -92.49625 49.29125 -93.75 49.3125 C-96.98227322 49.31824116 -99.91184741 49.03766315 -103.0625 48.25 C-103.0625 47.92 -103.0625 47.59 -103.0625 47.25 C-100.95861431 47.19597726 -98.85433286 47.15719744 -96.75 47.125 C-94.99236328 47.09019531 -94.99236328 47.09019531 -93.19921875 47.0546875 C-90.0625 47.25 -90.0625 47.25 -87.0625 49.25 C-86.7325 48.92 -86.4025 48.59 -86.0625 48.25 C-86.5575 47.858125 -87.0525 47.46625 -87.5625 47.0625 C-89.51843143 44.69908285 -89.30457973 43.23564997 -89.0625 40.25 C-86.0625 44.25 -86.0625 44.25 -84.8125 46.375 C-79.54534977 52.01837524 -69.16154657 50.87584775 -62.0625 51.25 C-62.0625 48.94 -62.0625 46.63 -62.0625 44.25 C-57.4425 43.92 -52.8225 43.59 -48.0625 43.25 C-45.14586532 37.65006142 -44.69716227 34.44653279 -46.0625 28.25 C-46.7225 27.59 -47.3825 26.93 -48.0625 26.25 C-48.0625 24.93 -48.0625 23.61 -48.0625 22.25 C-47.4025 21.92 -46.7425 21.59 -46.0625 21.25 C-45.5675 19.765 -45.5675 19.765 -45.0625 18.25 C-43.0825 18.58 -41.1025 18.91 -39.0625 19.25 C-38.67952128 37.59042553 -38.67952128 37.59042553 -41.0625 46.25 C-39.969375 46.394375 -38.87625 46.53875 -37.75 46.6875 C-34.0625 47.25 -34.0625 47.25 -31.0625 48.25 C-31.10375 47.321875 -31.145 46.39375 -31.1875 45.4375 C-31.0625 42.25 -31.0625 42.25 -29.0625 39.25 C-26.8984375 38.95703125 -26.8984375 38.95703125 -24.4375 39.0625 C-23.62023437 39.08957031 -22.80296875 39.11664063 -21.9609375 39.14453125 C-21.33445312 39.17933594 -20.70796875 39.21414063 -20.0625 39.25 C-19.0725 41.56 -18.0825 43.87 -17.0625 46.25 C-11.1225 45.755 -11.1225 45.755 -5.0625 45.25 C-5.0625 46.9 -5.0625 48.55 -5.0625 50.25 C-1.4325 50.25 2.1975 50.25 5.9375 50.25 C5.9375 43.65 5.9375 37.05 5.9375 30.25 C13.9375 40.25 13.9375 40.25 13.9375 44.25 C16.9075 44.25 19.8775 44.25 22.9375 44.25 C22.9375 32.04 22.9375 19.83 22.9375 7.25 C18.9775 7.25 15.0175 7.25 10.9375 7.25 C10.9375 10.55 10.9375 13.85 10.9375 17.25 C10.2775 17.25 9.6175 17.25 8.9375 17.25 C6.74482484 10.9156051 6.74482484 10.9156051 7.625 7.875 C8.9375 6.25 8.9375 6.25 11.9375 5.25 C13.83220816 5.1814505 15.7291834 5.16519628 17.625 5.1875 C18.61886719 5.19652344 19.61273438 5.20554688 20.63671875 5.21484375 C21.77560547 5.23224609 21.77560547 5.23224609 22.9375 5.25 C22.9375 4.59 22.9375 3.93 22.9375 3.25 C21.67534668 3.29543945 21.67534668 3.29543945 20.38769531 3.34179688 C-2.10356709 4.13011289 -24.55820323 4.37915233 -47.0625 4.25 C-46.7325 3.59 -46.4025 2.93 -46.0625 2.25 C-43.0972855 1.72615622 -40.24474444 1.38072271 -37.25 1.125 C-36.28328369 1.0415332 -35.31656738 0.95806641 -34.32055664 0.87207031 C-22.89456425 0.0369989 -11.45102423 0.02818814 0 0 Z " fill="#D11215" transform="translate(356.0625,247.75)"/>
<path d="M0 0 C1.13211914 -0.01836914 1.13211914 -0.01836914 2.28710938 -0.03710938 C7.17538622 -0.0498062 11.174455 0.63329419 15.8125 2.1875 C16.1425 1.8575 16.4725 1.5275 16.8125 1.1875 C19.03970379 1.02725717 21.27188019 0.93570167 23.50390625 0.87109375 C24.19307632 0.85026733 24.8822464 0.82944092 25.59230042 0.8079834 C27.85308398 0.74163055 30.11398692 0.68296479 32.375 0.625 C33.92106173 0.58213198 35.46712293 0.53924454 37.01318359 0.49633789 C49.61344312 0.16086167 62.20807404 0.06726406 74.8125 0.1875 C75.3075 1.1775 75.3075 1.1775 75.8125 2.1875 C76.8025 1.8575 77.7925 1.5275 78.8125 1.1875 C84.81266028 -0.50951503 91.16594541 -0.77021907 96.8125 2.1875 C99.37651125 7.57529303 99.06951961 13.00615073 99.0078125 18.8359375 C99.0049826 19.84846588 99.00215271 20.86099426 98.99923706 21.90420532 C98.98808254 25.12375938 98.96298646 28.34303065 98.9375 31.5625 C98.9274641 33.75129805 98.91833931 35.94010049 98.91015625 38.12890625 C98.8881587 43.48186658 98.85472824 48.83466308 98.8125 54.1875 C98.1525 54.1875 97.4925 54.1875 96.8125 54.1875 C96.4825 37.3575 96.1525 20.5275 95.8125 3.1875 C94.1625 3.5175 92.5125 3.8475 90.8125 4.1875 C90.8125 4.8475 90.8125 5.5075 90.8125 6.1875 C91.8025 6.5175 92.7925 6.8475 93.8125 7.1875 C93.8125 21.3775 93.8125 35.5675 93.8125 50.1875 C93.4825 50.1875 93.1525 50.1875 92.8125 50.1875 C92.4825 35.9975 92.1525 21.8075 91.8125 7.1875 C88.1825 7.1875 84.5525 7.1875 80.8125 7.1875 C80.4825 8.8375 80.1525 10.4875 79.8125 12.1875 C79.16353174 13.9728143 78.47562895 15.74444608 77.75 17.5 C77.38777344 18.38300781 77.02554688 19.26601563 76.65234375 20.17578125 C76.23662109 21.17158203 76.23662109 21.17158203 75.8125 22.1875 C73.15322316 19.52822316 72.6314086 16.59341734 71.6875 13.0625 C71.50574219 12.40378906 71.32398438 11.74507813 71.13671875 11.06640625 C70.68934563 9.44173544 70.25013465 7.81482107 69.8125 6.1875 C65.5225 6.1875 61.2325 6.1875 56.8125 6.1875 C56.8125 5.5275 56.8125 4.8675 56.8125 4.1875 C51.45566151 4.13808618 46.0989555 4.10177393 40.74194336 4.07763672 C38.91932871 4.06757509 37.09673021 4.0539244 35.27416992 4.03662109 C32.65539565 4.01237979 30.03683469 4.00101862 27.41796875 3.9921875 C26.60224899 3.98186493 25.78652924 3.97154236 24.9460907 3.96090698 C21.04119244 3.9601314 19.13725992 3.97099339 15.8125 6.1875 C16.4725 6.8475 17.1325 7.5075 17.8125 8.1875 C17.4825 9.1775 17.1525 10.1675 16.8125 11.1875 C16.27334961 10.7030542 15.73419922 10.2186084 15.17871094 9.71948242 C12.25481717 7.82643317 10.41699872 7.76414538 6.953125 7.67578125 C5.94797852 7.64266846 4.94283203 7.60955566 3.90722656 7.57543945 C2.6384668 7.55054443 1.36970703 7.52564941 0.0625 7.5 C-3.98 7.396875 -8.0225 7.29375 -12.1875 7.1875 C-12.1875 18.7375 -12.1875 30.2875 -12.1875 42.1875 C-8.578125 42.125625 -4.96875 42.06375 -1.25 42 C-0.13117432 41.99331299 0.98765137 41.98662598 2.14038086 41.97973633 C8.92089387 41.77056113 14.49356698 40.63773117 19.8125 36.1875 C21.05929359 34.11699645 21.05929359 34.11699645 21.8125 32.1875 C21.94133271 40.26101654 21.57811134 48.14858096 20.8125 56.1875 C27.0825 56.1875 33.3525 56.1875 39.8125 56.1875 C39.8125 56.5175 39.8125 56.8475 39.8125 57.1875 C33.2125 57.1875 26.6125 57.1875 19.8125 57.1875 C19.3175 51.2475 19.3175 51.2475 18.8125 45.1875 C17.471875 45.661875 16.13125 46.13625 14.75 46.625 C3.98485585 50.15783368 -7.06862241 49.77591108 -18.1875 48.1875 C-18.5175 32.6775 -18.8475 17.1675 -19.1875 1.1875 C-12.70044927 0.53879493 -6.48084585 0.00562086 0 0 Z " fill="#C91416" transform="translate(103.1875,247.8125)"/>
<path d="M0 0 C0.79921875 0.00902344 1.5984375 0.01804688 2.421875 0.02734375 C3.02515625 0.03894531 3.6284375 0.05054688 4.25 0.0625 C6.16539047 5.02510257 7.85961435 9.92876838 9.25 15.0625 C10.06498562 13.4595947 10.87689927 11.85512722 11.6875 10.25 C12.13996094 9.35667969 12.59242188 8.46335937 13.05859375 7.54296875 C14.3331605 5.02250522 14.3331605 5.02250522 15.25 2.0625 C18.88 2.0625 22.51 2.0625 26.25 2.0625 C27.53802244 10.89610274 27.361369 19.72254345 27.3125 28.625 C27.30747543 30.22200381 27.30291421 31.81900914 27.29882812 33.41601562 C27.28789728 37.29821533 27.27068533 41.18034051 27.25 45.0625 C22.3 45.5575 22.3 45.5575 17.25 46.0625 C16.755 34.1825 16.755 34.1825 16.25 22.0625 C15.92 23.7125 15.59 25.3625 15.25 27.0625 C14.59 27.0625 13.93 27.0625 13.25 27.0625 C13.105625 27.84625 12.96125 28.63 12.8125 29.4375 C12.25 32.0625 12.25 32.0625 11.25 34.0625 C9.27 34.0625 7.29 34.0625 5.25 34.0625 C3.63935371 30.41170174 2.80105909 27.0117568 2.25 23.0625 C1.92 26.6925 1.59 30.3225 1.25 34.0625 C-3.7 34.5575 -3.7 34.5575 -8.75 35.0625 C-8.75 23.8425 -8.75 12.6225 -8.75 1.0625 C-5.48118027 0.24529507 -3.28000931 -0.04823543 0 0 Z " fill="#0F0101" transform="translate(168.75,252.9375)"/>
<path d="M0 0 C3.96 -0.144375 7.92 -0.28875 12 -0.4375 C13.84851563 -0.53309204 13.84851563 -0.53309204 15.734375 -0.63061523 C21.1936608 -0.726524 25.27585877 -0.50856688 29.7421875 2.8359375 C33.35825564 6.59720059 34.06605958 10.01244313 34.21655273 15.13623047 C34.18634033 16.10189941 34.15612793 17.06756836 34.125 18.0625 C34.09801025 19.04879395 34.07102051 20.03508789 34.04321289 21.05126953 C33.78310034 25.06627073 33.42670971 28.18453589 31.55078125 31.76953125 C23.6678392 37.75823584 9.00149047 35.31039622 0 35 C0 23.45 0 11.9 0 0 Z " fill="#140001" transform="translate(91,255)"/>
<path d="M0 0 C3.63 0 7.26 0 11 0 C15 6.625 15 6.625 15 10 C15.66 10 16.32 10 17 10 C17 6.7 17 3.4 17 0 C20.96 0 24.92 0 29 0 C29 12.21 29 24.42 29 37 C26.03 37 23.06 37 20 37 C18.98965502 35.25595212 17.99207578 33.50450439 17 31.75 C16.443125 30.77546875 15.88625 29.8009375 15.3125 28.796875 C14 26 14 26 14 22 C13.01 22 12.02 22 11 22 C11 28.27 11 34.54 11 41 C8.03 41 5.06 41 2 41 C1.93941406 39.60265625 1.87882812 38.2053125 1.81640625 36.765625 C1.73198297 34.92707358 1.64733586 33.08853243 1.5625 31.25 C1.50352539 29.86941406 1.50352539 29.86941406 1.44335938 28.4609375 C1.40146484 27.57148438 1.35957031 26.68203125 1.31640625 25.765625 C1.27974854 24.94868164 1.24309082 24.13173828 1.20532227 23.29003906 C1.06220165 21.02224017 1.06220165 21.02224017 0.48632812 18.95898438 C-0.03472969 16.86010489 -0.11401519 15.05000509 -0.09765625 12.890625 C-0.09443359 12.13652344 -0.09121094 11.38242187 -0.08789062 10.60546875 C-0.07951172 9.82816406 -0.07113281 9.05085938 -0.0625 8.25 C-0.05798828 7.45722656 -0.05347656 6.66445313 -0.04882812 5.84765625 C-0.03708565 3.89840492 -0.01915146 1.94919262 0 0 Z " fill="#0C0001" transform="translate(350,255)"/>
<path d="M0 0 C9.24 0 18.48 0 28 0 C28 2.97 28 5.94 28 9 C22.06 9.495 22.06 9.495 16 10 C16 11.98 16 13.96 16 16 C19.96 16.33 23.92 16.66 28 17 C28 19.31 28 21.62 28 24 C23.38 24 18.76 24 14 24 C14 27.63 14 31.26 14 35 C22.25 35 30.5 35 39 35 C39 37.64 39 40.28 39 43 C27.12 43 15.24 43 3 43 C3 31.78 3 20.56 3 9 C2.01 9 1.02 9 0 9 C0 6.03 0 3.06 0 0 Z " fill="#0C0001" transform="translate(127,256)"/>
<path d="M0 0 C3.3 0 6.6 0 10 0 C10.14857681 4.34149055 10.25731436 8.68162732 10.32958984 13.02490234 C10.35972248 14.50140156 10.40063879 15.97772232 10.45263672 17.45361328 C10.52562629 19.57889779 10.55948491 21.70181393 10.5859375 23.828125 C10.63306885 25.7447998 10.63306885 25.7447998 10.68115234 27.70019531 C10 31 10 31 7.15087891 33.38574219 C2.54158173 35.74717663 -0.73330122 36.160324 -5.875 36.1875 C-7.08929688 36.20167969 -8.30359375 36.21585937 -9.5546875 36.23046875 C-14.00285761 35.93291542 -16.83170106 35.16829894 -20 32 C-20.22705078 28.92724609 -20.22705078 28.92724609 -20.1953125 25.0234375 C-20.1924826 24.33819 -20.18965271 23.6529425 -20.18673706 22.94692993 C-20.17553281 20.75610973 -20.15042859 18.56569684 -20.125 16.375 C-20.11497048 14.8906309 -20.10584458 13.4062554 -20.09765625 11.921875 C-20.07729323 8.28096644 -20.03814721 4.64093968 -20 1 C-15.38 1 -10.76 1 -6 1 C-6 9.91 -6 18.82 -6 28 C-4.02 28 -2.04 28 0 28 C0 18.76 0 9.52 0 0 Z " fill="#0B0001" transform="translate(236,255)"/>
<path d="M0 0 C0.8694072 -0.00137466 1.73881439 -0.00274933 2.63456726 -0.00416565 C4.06847054 0.00122726 4.06847054 0.00122726 5.53134155 0.00672913 C6.53625137 0.0065831 7.54116119 0.00643707 8.57652283 0.00628662 C11.90962863 0.00698522 15.24267906 0.01477519 18.57577515 0.02259827 C20.88220184 0.02446263 23.18862892 0.02588645 25.49505615 0.02688599 C31.57452482 0.0307097 37.6539697 0.04053876 43.73342896 0.05158997 C49.93347858 0.06180722 56.13353204 0.06638428 62.33358765 0.07142639 C74.50547311 0.08216114 86.6773409 0.09923583 98.84921265 0.12025452 C98.84921265 0.78025452 98.84921265 1.44025452 98.84921265 2.12025452 C94.22921265 2.45025452 89.60921265 2.78025452 84.84921265 3.12025452 C84.84921265 4.77025452 84.84921265 6.42025452 84.84921265 8.12025452 C83.85921265 7.79025452 82.86921265 7.46025452 81.84921265 7.12025452 C81.35421265 6.13025452 81.35421265 6.13025452 80.84921265 5.12025452 C78.26315933 4.65192802 78.26315933 4.65192802 75.28671265 4.49525452 C74.27479858 4.42048889 73.26288452 4.34572327 72.2203064 4.26869202 C71.43784546 4.21970764 70.65538452 4.17072327 69.84921265 4.12025452 C69.9574939 5.64779358 69.9574939 5.64779358 70.06796265 7.20619202 C70.78070432 17.85920253 70.96157732 28.44561015 70.84921265 39.12025452 C67.92699914 34.73693426 66.20242883 29.92602091 64.22421265 25.05775452 C63.80397827 24.03875061 63.3837439 23.0197467 62.95077515 21.96986389 C62.35522827 20.51096741 62.35522827 20.51096741 61.74765015 19.02259827 C61.38332886 18.13048645 61.01900757 17.23837463 60.64364624 16.31922913 C59.84921265 14.12025452 59.84921265 14.12025452 59.84921265 12.12025452 C62.15921265 12.12025452 64.46921265 12.12025452 66.84921265 12.12025452 C66.84921265 9.48025452 66.84921265 6.84025452 66.84921265 4.12025452 C55.95921265 4.12025452 45.06921265 4.12025452 33.84921265 4.12025452 C33.84921265 7.42025452 33.84921265 10.72025452 33.84921265 14.12025452 C35.82921265 14.12025452 37.80921265 14.12025452 39.84921265 14.12025452 C39.73451127 15.87095969 39.60702237 17.62082987 39.47421265 19.37025452 C39.40460327 20.34478577 39.3349939 21.31931702 39.26327515 22.32337952 C38.84921265 25.12025452 38.84921265 25.12025452 36.84921265 29.12025452 C36.84921265 24.83025452 36.84921265 20.54025452 36.84921265 16.12025452 C34.86921265 15.79025452 32.88921265 15.46025452 30.84921265 15.12025452 C30.51921265 16.44025452 30.18921265 17.76025452 29.84921265 19.12025452 C28.84921265 17.12025452 28.84921265 17.12025452 29.03671265 13.80775452 C29.08887922 10.18162839 29.08887922 10.18162839 27.5718689 7.44056702 C23.24078319 3.74951263 18.6074295 4.33938903 13.09921265 4.30775452 C9.38671265 4.24587952 5.67421265 4.18400452 1.84921265 4.12025452 C1.84921265 15.67025452 1.84921265 27.22025452 1.84921265 39.12025452 C-1.15078735 38.12025452 -1.15078735 38.12025452 -2.77578735 36.24525452 C-4.75308144 31.75140431 -5.50047913 27.03114332 -5.15078735 22.12025452 C-4.1691796 21.10219449 -3.16884738 20.10186227 -2.15078735 19.12025452 C-1.71335765 16.74708274 -1.71335765 16.74708274 -1.83828735 14.18275452 C-1.84215454 13.32810608 -1.84602173 12.47345764 -1.8500061 11.59291077 C-2.1653553 9.00049465 -2.95116773 7.40956846 -4.15078735 5.12025452 C-4.15078735 4.13025452 -4.15078735 3.14025452 -4.15078735 2.12025452 C-4.81078735 1.79025452 -5.47078735 1.46025452 -6.15078735 1.12025452 C-3.84780079 -0.03123877 -2.56082638 -0.00311536 0 0 Z " fill="#E60D0D" transform="translate(280.1507873535156,250.87974548339844)"/>
<path d="M0 0 C2.31 0 4.62 0 7 0 C7.75345792 3.35509543 8.12278728 6.44592067 8.11352539 9.88208008 C8.11344986 10.82267776 8.11337433 11.76327545 8.11329651 12.7323761 C8.10813522 13.7346373 8.10297394 14.7368985 8.09765625 15.76953125 C8.0962413 16.80567062 8.09482635 17.84181 8.09336853 18.90934753 C8.08778242 22.21042804 8.07523242 25.51144008 8.0625 28.8125 C8.05748321 31.05403548 8.05292061 33.29557202 8.04882812 35.53710938 C8.03781753 41.02476284 8.02109318 46.51237653 8 52 C3.3096697 53.67140007 -0.37811731 54.21928081 -5.375 54.125 C-6.62023437 54.10695313 -7.86546875 54.08890625 -9.1484375 54.0703125 C-10.08945313 54.04710937 -11.03046875 54.02390625 -12 54 C-12 50.37 -12 46.74 -12 43 C-14.64 43 -17.28 43 -20 43 C-20.33 46.63 -20.66 50.26 -21 54 C-33.375 54.495 -33.375 54.495 -46 55 C-45.34 54.01 -44.68 53.02 -44 52 C-41.84521484 51.65942383 -41.84521484 51.65942383 -39.2109375 51.70703125 C-38.26992187 51.71669922 -37.32890625 51.72636719 -36.359375 51.73632812 C-35.37453125 51.76146484 -34.3896875 51.78660156 -33.375 51.8125 C-31.88613281 51.83280273 -31.88613281 51.83280273 -30.3671875 51.85351562 C-27.91091928 51.88894257 -25.45572715 51.93833804 -23 52 C-23 50.02 -23 48.04 -23 46 C-23.66 46 -24.32 46 -25 46 C-25 46.99 -25 47.98 -25 49 C-25.66 48.67 -26.32 48.34 -27 48 C-26.67 45.36 -26.34 42.72 -26 40 C-34.25 40 -42.5 40 -51 40 C-51 36.37 -51 32.74 -51 29 C-46.71 29 -42.42 29 -38 29 C-38 29.33 -38 29.66 -38 30 C-39.7015625 30.2165625 -39.7015625 30.2165625 -41.4375 30.4375 C-44.80777201 30.61171478 -44.80777201 30.61171478 -46 32 C-44.72125 32.0825 -43.4425 32.165 -42.125 32.25 C-39.9453125 32.390625 -39.9453125 32.390625 -38 33 C-37.34 34.32 -36.68 35.64 -36 37 C-31.38 36.67 -26.76 36.34 -22 36 C-22 31.71 -22 27.42 -22 23 C-19.47519307 25.52480693 -19.44261367 27.13823034 -18.875 30.625 C-18.62363281 32.12933594 -18.62363281 32.12933594 -18.3671875 33.6640625 C-18.24601562 34.43492187 -18.12484375 35.20578125 -18 36 C-16.02 36 -14.04 36 -12 36 C-11.34 33.69 -10.68 31.38 -10 29 C-9.34 29 -8.68 29 -8 29 C-8 27.35 -8 25.7 -8 24 C-7.34 23.67 -6.68 23.34 -6 23 C-6 31.25 -6 39.5 -6 48 C-2.37 47.67 1.26 47.34 5 47 C4.67 32.81 4.34 18.62 4 4 C3.34 3.67 2.68 3.34 2 3 C2 2.34 2 1.68 2 1 C1.34 0.67 0.68 0.34 0 0 Z " fill="#DF1D1D" transform="translate(192,251)"/>
<path d="M0 0 C0.495 0.99 0.495 0.99 1 2 C1.99 1.67 2.98 1.34 4 1 C10.00016028 -0.69701503 16.35344541 -0.95771907 22 2 C24.56401125 7.38779303 24.25701961 12.81865073 24.1953125 18.6484375 C24.1924826 19.66096588 24.18965271 20.67349426 24.18673706 21.71670532 C24.17558254 24.93625938 24.15048646 28.15553065 24.125 31.375 C24.1149641 33.56379805 24.10583931 35.75260049 24.09765625 37.94140625 C24.0756587 43.29436658 24.04222824 48.64716308 24 54 C23.34 54 22.68 54 22 54 C21.67 37.17 21.34 20.34 21 3 C19.35 3.33 17.7 3.66 16 4 C16 4.66 16 5.32 16 6 C16.99 6.33 17.98 6.66 19 7 C19 21.19 19 35.38 19 50 C18.67 50 18.34 50 18 50 C17.67 35.81 17.34 21.62 17 7 C13.37 7 9.74 7 6 7 C5.67 8.65 5.34 10.3 5 12 C4.35103174 13.7853143 3.66312895 15.55694608 2.9375 17.3125 C2.57527344 18.19550781 2.21304688 19.07851563 1.83984375 19.98828125 C1.56269531 20.65214844 1.28554687 21.31601562 1 22 C-1.65927684 19.34072316 -2.1810914 16.40591734 -3.125 12.875 C-3.30675781 12.21628906 -3.48851562 11.55757813 -3.67578125 10.87890625 C-4.12315437 9.25423544 -4.56236535 7.62732107 -5 6 C-9.29 6 -13.58 6 -18 6 C-18 5.34 -18 4.68 -18 4 C-31.2 3.34 -44.4 2.68 -58 2 C-58 1.67 -58 1.34 -58 1 C-38.66193872 0.35218184 -19.3520136 -0.18460242 0 0 Z " fill="#D51213" transform="translate(178,248)"/>
<path d="M0 0 C0.69276535 -0.00335861 1.3855307 -0.00671722 2.09928894 -0.01017761 C4.40255501 -0.01971942 6.70574856 -0.02163275 9.0090332 -0.02270508 C10.60748831 -0.02591694 12.20594311 -0.02928095 13.80439758 -0.03279114 C17.16289958 -0.03879154 20.52137583 -0.04063026 23.87988281 -0.04003906 C28.1761356 -0.03993773 32.47222203 -0.05355545 36.76843548 -0.07081127 C40.07392631 -0.08195456 43.37937734 -0.08395751 46.68488503 -0.08342934 C48.26806013 -0.08460727 49.85123633 -0.08901857 51.43439293 -0.0967617 C53.65559714 -0.10660257 55.87644582 -0.10366689 58.09765625 -0.09765625 C59.36038864 -0.09908127 60.62312103 -0.10050629 61.92411804 -0.10197449 C65.39360922 0.14679052 68.14020984 0.89472705 71.37231445 2.14526367 C71.37231445 2.47526367 71.37231445 2.80526367 71.37231445 3.14526367 C55.53231445 3.64026367 55.53231445 3.64026367 39.37231445 4.14526367 C39.37231445 5.13526367 39.37231445 6.12526367 39.37231445 7.14526367 C19.57231445 6.65026367 19.57231445 6.65026367 -0.62768555 6.14526367 C-0.62768555 5.81526367 -0.62768555 5.48526367 -0.62768555 5.14526367 C7.29231445 4.65026367 7.29231445 4.65026367 15.37231445 4.14526367 C2.50231445 4.14526367 -10.36768555 4.14526367 -23.62768555 4.14526367 C-23.95768555 16.68526367 -24.28768555 29.22526367 -24.62768555 42.14526367 C-23.96768555 42.14526367 -23.30768555 42.14526367 -22.62768555 42.14526367 C-22.29768555 43.46526367 -21.96768555 44.78526367 -21.62768555 46.14526367 C-22.28768555 46.14526367 -22.94768555 46.14526367 -23.62768555 46.14526367 C-23.62768555 45.15526367 -23.62768555 44.16526367 -23.62768555 43.14526367 C-24.28768555 43.14526367 -24.94768555 43.14526367 -25.62768555 43.14526367 C-27.2934618 39.81371116 -26.7477641 36.07990309 -26.7253418 32.41870117 C-26.72392685 31.55588531 -26.7225119 30.69306946 -26.72105408 29.80410767 C-26.71544742 27.04279137 -26.70289382 24.28155555 -26.69018555 21.52026367 C-26.6851714 19.65047317 -26.68060835 17.78068141 -26.67651367 15.91088867 C-26.66547583 11.3223159 -26.64820674 6.73380344 -26.62768555 2.14526367 C-26.05735596 2.12020752 -25.48702637 2.09515137 -24.89941406 2.06933594 C-22.32942398 1.95369818 -19.75983027 1.83082743 -17.19018555 1.70776367 C-16.29235352 1.66844727 -15.39452148 1.62913086 -14.46948242 1.58862305 C-13.61547852 1.54672852 -12.76147461 1.50483398 -11.8815918 1.46166992 C-11.09083252 1.42501221 -10.30007324 1.38835449 -9.48535156 1.35058594 C-6.16047968 0.9830978 -3.84335985 0.01163858 0 0 Z " fill="#D81312" transform="translate(236.627685546875,247.854736328125)"/>
<path d="M0 0 C3 4 3 4 4.25 6.125 C9.51715023 11.76837524 19.90095343 10.62584775 27 11 C27 9.02 27 7.04 27 5 C29.64590014 4.97315321 32.29153096 4.95323643 34.9375 4.9375 C36.06961914 4.92493164 36.06961914 4.92493164 37.22460938 4.91210938 C39.14994313 4.90347559 41.07535581 4.94775667 43 5 C43.495 5.495 43.495 5.495 44 6 C45.51165654 6.39148761 47.03469632 6.73972457 48.5625 7.0625 C49.38878906 7.23910156 50.21507812 7.41570312 51.06640625 7.59765625 C51.70449219 7.73042969 52.34257812 7.86320312 53 8 C51.68 8.33 50.36 8.66 49 9 C49 9.66 49 10.32 49 11 C52.96 11.66 56.92 12.32 61 13 C61.144375 11.906875 61.28875 10.81375 61.4375 9.6875 C62 6 62 6 63 3 C63.99 3 64.98 3 66 3 C66.99 6.96 66.99 6.96 68 11 C66 10 66 10 65 7 C63.68 9.97 62.36 12.94 61 16 C58.37426939 15.35702496 55.74942697 14.71075589 53.125 14.0625 C52.37863281 13.88009766 51.63226563 13.69769531 50.86328125 13.50976562 C45.2265625 12.11328125 45.2265625 12.11328125 43 11 C41.29636178 10.77377919 39.58671299 10.59111527 37.875 10.4375 C36.96492188 10.35371094 36.05484375 10.26992188 35.1171875 10.18359375 C34.06917969 10.09271484 34.06917969 10.09271484 33 10 C33 12.31 33 14.62 33 17 C29.33348753 17.08796382 25.66725082 17.14071247 22 17.1875 C20.97003906 17.21263672 19.94007813 17.23777344 18.87890625 17.26367188 C12.49885379 17.32462779 7.81458023 16.66268638 2 14 C2 13.34 2 12.68 2 12 C1.01 11.67 0.02 11.34 -1 11 C-1 10.34 -1 9.68 -1 9 C-2.216875 9.020625 -3.43375 9.04125 -4.6875 9.0625 C-7.91977322 9.06824116 -10.84934741 8.78766315 -14 8 C-14 7.67 -14 7.34 -14 7 C-11.89611431 6.94597726 -9.79183286 6.90719744 -7.6875 6.875 C-5.92986328 6.84019531 -5.92986328 6.84019531 -4.13671875 6.8046875 C-1 7 -1 7 2 9 C2.33 8.67 2.66 8.34 3 8 C2.505 7.608125 2.01 7.21625 1.5 6.8125 C-0.45593143 4.44908285 -0.24207973 2.98564997 0 0 Z " fill="#DC1414" transform="translate(267,288)"/>
<path d="M0 0 C9.9 0 19.8 0 30 0 C30 3.63 30 7.26 30 11 C30.99 11 31.98 11 33 11 C33.33 10.34 33.66 9.68 34 9 C34 16.92 34 24.84 34 33 C32.02 33.495 32.02 33.495 30 34 C29.34 33.34 28.68 32.68 28 32 C28 31.01 28 30.02 28 29 C25.03 29 22.06 29 19 29 C19.66 28.01 20.32 27.02 21 26 C24.625 25.3125 24.625 25.3125 28 25 C28.33 22.69 28.66 20.38 29 18 C28.14535156 18.01160156 27.29070312 18.02320313 26.41015625 18.03515625 C25.30542969 18.04417969 24.20070312 18.05320312 23.0625 18.0625 C21.96035156 18.07410156 20.85820312 18.08570313 19.72265625 18.09765625 C17 18 17 18 16 17 C15.875 14 15.875 14 16 11 C17 10 17 10 19.72265625 9.90234375 C21.37587891 9.91974609 21.37587891 9.91974609 23.0625 9.9375 C24.16722656 9.94652344 25.27195313 9.95554687 26.41015625 9.96484375 C27.26480469 9.97644531 28.11945313 9.98804688 29 10 C29 7.03 29 4.06 29 1 C19.76 1 10.52 1 1 1 C1 3.97 1 6.94 1 10 C1.99 10 2.98 10 4 10 C4 21.22 4 32.44 4 44 C15.55 44 27.1 44 39 44 C39 44.33 39 44.66 39 45 C27.12 45 15.24 45 3 45 C3 33.78 3 22.56 3 11 C2.01 11 1.02 11 0 11 C0 7.37 0 3.74 0 0 Z " fill="#960B0C" transform="translate(126,255)"/>
<path d="M0 0 C0.9861026 -0.00517639 1.9722052 -0.01035278 2.9881897 -0.01568604 C5.83732352 -0.02746139 8.6860183 -0.02419626 11.53515625 -0.015625 C12.39377258 -0.01958282 13.25238892 -0.02354065 14.13702393 -0.02761841 C18.73604024 0.00779573 22.71835174 0.19908717 26.9375 2.25 C29.15994772 5.18512801 29.17472008 7.84907311 29.1328125 11.453125 C29.12636719 12.4328125 29.11992187 13.4125 29.11328125 14.421875 C29.08814453 15.94554687 29.08814453 15.94554687 29.0625 17.5 C29.05347656 18.53125 29.04445313 19.5625 29.03515625 20.625 C29.01162011 23.16690287 28.97874023 25.7083328 28.9375 28.25 C28.2775 28.25 27.6175 28.25 26.9375 28.25 C26.9375 21.32 26.9375 14.39 26.9375 7.25 C26.2775 7.25 25.6175 7.25 24.9375 7.25 C24.9375 19.46 24.9375 31.67 24.9375 44.25 C24.2775 44.25 23.6175 44.25 22.9375 44.25 C22.9375 32.04 22.9375 19.83 22.9375 7.25 C18.9775 7.25 15.0175 7.25 10.9375 7.25 C10.9375 10.55 10.9375 13.85 10.9375 17.25 C10.2775 17.25 9.6175 17.25 8.9375 17.25 C6.74482484 10.9156051 6.74482484 10.9156051 7.625 7.875 C8.9375 6.25 8.9375 6.25 11.9375 5.25 C13.83220816 5.1814505 15.7291834 5.16519628 17.625 5.1875 C18.61886719 5.19652344 19.61273438 5.20554688 20.63671875 5.21484375 C21.77560547 5.23224609 21.77560547 5.23224609 22.9375 5.25 C22.9375 4.59 22.9375 3.93 22.9375 3.25 C21.67534668 3.29543945 21.67534668 3.29543945 20.38769531 3.34179688 C-2.10356709 4.13011289 -24.55820323 4.37915233 -47.0625 4.25 C-46.7325 3.59 -46.4025 2.93 -46.0625 2.25 C-43.0972855 1.72615622 -40.24474444 1.38072271 -37.25 1.125 C-36.28328369 1.0415332 -35.31656738 0.95806641 -34.32055664 0.87207031 C-22.89456425 0.0369989 -11.45102423 0.02818814 0 0 Z " fill="#D43F3E" transform="translate(356.0625,247.75)"/>
<path d="M0 0 C1.13211914 -0.01836914 1.13211914 -0.01836914 2.28710938 -0.03710938 C7.17538622 -0.0498062 11.174455 0.63329419 15.8125 2.1875 C11.89922129 4.79635248 10.01920794 5.33251602 5.3671875 5.50390625 C4.29082031 5.54580078 3.21445313 5.58769531 2.10546875 5.63085938 C0.97753906 5.67017578 -0.15039062 5.70949219 -1.3125 5.75 C-2.44816406 5.79318359 -3.58382812 5.83636719 -4.75390625 5.88085938 C-7.56495261 5.98715945 -10.3762099 6.08785397 -13.1875 6.1875 C-13.5175 12.7875 -13.8475 19.3875 -14.1875 26.1875 C-14.5175 26.1875 -14.8475 26.1875 -15.1875 26.1875 C-15.5175 32.4575 -15.8475 38.7275 -16.1875 45.1875 C-13.0193554 45.97953615 -11.09993553 46.29372511 -7.96484375 46.21484375 C-7.17916016 46.20259766 -6.39347656 46.19035156 -5.58398438 46.17773438 C-3.94066883 46.1424925 -2.29743126 46.10341125 -0.65429688 46.06054688 C0.13009766 46.04958984 0.91449219 46.03863281 1.72265625 46.02734375 C2.79205444 46.00208618 2.79205444 46.00208618 3.88305664 45.97631836 C5.8125 46.1875 5.8125 46.1875 8.8125 48.1875 C4.44745295 49.02463231 0.31750795 49.3223177 -4.125 49.3125 C-5.28902344 49.31507813 -6.45304687 49.31765625 -7.65234375 49.3203125 C-11.1875 49.1875 -11.1875 49.1875 -18.1875 48.1875 C-18.5175 32.6775 -18.8475 17.1675 -19.1875 1.1875 C-12.70044927 0.53879493 -6.48084585 0.00562086 0 0 Z " fill="#DB1615" transform="translate(103.1875,247.8125)"/>
<path d="M0 0 C16.17 0 32.34 0 49 0 C49 0.33 49 0.66 49 1 C45.37 1 41.74 1 38 1 C38.10828125 2.52753906 38.10828125 2.52753906 38.21875 4.0859375 C38.93149167 14.73894801 39.11236468 25.32535564 39 36 C36.0777865 31.61667975 34.35321619 26.80576639 32.375 21.9375 C31.95476562 20.91849609 31.53453125 19.89949219 31.1015625 18.84960938 C30.70453125 17.87701172 30.3075 16.90441406 29.8984375 15.90234375 C29.53411621 15.01023193 29.16979492 14.11812012 28.79443359 13.19897461 C28 11 28 11 28 9 C30.31 9 32.62 9 35 9 C35 6.36 35 3.72 35 1 C24.11 1 13.22 1 2 1 C2 4.3 2 7.6 2 11 C3.98 11 5.96 11 8 11 C7.88529863 12.75070517 7.75780972 14.50057536 7.625 16.25 C7.55539062 17.22453125 7.48578125 18.1990625 7.4140625 19.203125 C7 22 7 22 5 26 C5 21.71 5 17.42 5 13 C2.03 12.505 2.03 12.505 -1 12 C-1.33 13.32 -1.66 14.64 -2 16 C-3 14 -3 14 -2.875 10.6875 C-3.00788613 6.76735921 -3.73175612 5.11883533 -6 2 C-3.03 2.495 -3.03 2.495 0 3 C0 2.01 0 1.02 0 0 Z " fill="#B11617" transform="translate(312,254)"/>
<path d="M0 0 C0 0.33 0 0.66 0 1 C-1.98 1 -3.96 1 -6 1 C-6.33 9.91 -6.66 18.82 -7 28 C-7.33 28 -7.66 28 -8 28 C-8 19.09 -8 10.18 -8 1 C-11.3 1 -14.6 1 -18 1 C-18 10.24 -18 19.48 -18 29 C-19.98 29 -21.96 29 -24 29 C-24 20.09 -24 11.18 -24 2 C-28.62 2 -33.24 2 -38 2 C-38 11.57 -38 21.14 -38 31 C-38.33 31 -38.66 31 -39 31 C-39 21.1 -39 11.2 -39 1 C-25.97909345 0.00793093 -13.05528571 -0.11153964 0 0 Z " fill="#BB1112" transform="translate(254,254)"/>
<path d="M0 0 C1.25232422 -0.01224609 2.50464844 -0.02449219 3.79492188 -0.03710938 C5.59606445 -0.04000977 5.59606445 -0.04000977 7.43359375 -0.04296875 C8.51568115 -0.04707764 9.59776855 -0.05118652 10.71264648 -0.05541992 C13.52917441 0.18465935 15.17217098 0.73049287 17.5625 2.1875 C16.98282471 2.21255615 16.40314941 2.2376123 15.8059082 2.26342773 C13.16207893 2.37996234 10.51855591 2.50242682 7.875 2.625 C6.50698242 2.68397461 6.50698242 2.68397461 5.11132812 2.74414062 C4.22509766 2.78603516 3.33886719 2.82792969 2.42578125 2.87109375 C1.61407471 2.90775146 0.80236816 2.94440918 -0.03393555 2.98217773 C-2.47606289 3.14521059 -2.47606289 3.14521059 -4.9921875 3.70117188 C-8.56594995 4.41192814 -12.12326105 4.2921337 -15.75 4.25 C-16.49056641 4.24548828 -17.23113281 4.24097656 -17.99414062 4.23632812 C-19.80862899 4.22462175 -21.62307534 4.20668898 -23.4375 4.1875 C-23.31880373 8.36858567 -23.19452727 12.54945788 -23.06518555 16.73022461 C-23.02200196 18.15107775 -22.98031592 19.57197726 -22.94018555 20.99291992 C-22.88207905 23.0409947 -22.81850362 25.08883965 -22.75390625 27.13671875 C-22.71724854 28.36737061 -22.68059082 29.59802246 -22.64282227 30.8659668 C-22.46480577 33.74576984 -22.09140895 36.38337088 -21.4375 39.1875 C-22.9225 39.6825 -22.9225 39.6825 -24.4375 40.1875 C-25.0975 39.8575 -25.7575 39.5275 -26.4375 39.1875 C-26.46225064 34.41862363 -26.48038403 29.64978479 -26.49243164 24.88085938 C-26.49745505 23.25910796 -26.50427494 21.63736105 -26.51293945 20.015625 C-26.52509229 17.68228031 -26.53074828 15.3489956 -26.53515625 13.015625 C-26.54031754 12.29256165 -26.54547882 11.56949829 -26.55079651 10.82452393 C-26.55116918 7.4673725 -26.48657619 4.39643892 -25.4375 1.1875 C-16.94868629 0.23896212 -8.53739339 0.004491 0 0 Z " fill="#E50E0F" transform="translate(238.4375,250.8125)"/>
<path d="M0 0 C0.33 0.99 0.66 1.98 1 3 C0.01 3.99 -0.98 4.98 -2 6 C-0.68 6 0.64 6 2 6 C2 6.66 2 7.32 2 8 C3.98 8 5.96 8 8 8 C8 8.33 8 8.66 8 9 C7.39671875 8.97679687 6.7934375 8.95359375 6.171875 8.9296875 C5.37265625 8.91164063 4.5734375 8.89359375 3.75 8.875 C2.56664062 8.84019531 2.56664062 8.84019531 1.359375 8.8046875 C-1.002607 8.8428549 -1.002607 8.8428549 -2.8605957 9.99560547 C-5.28863026 11.13550438 -6.92037962 11.25795491 -9.58984375 11.265625 C-10.89018555 11.26949219 -10.89018555 11.26949219 -12.21679688 11.2734375 C-13.56354492 11.26183594 -13.56354492 11.26183594 -14.9375 11.25 C-16.27844727 11.26160156 -16.27844727 11.26160156 -17.64648438 11.2734375 C-26.05321193 11.2484732 -26.05321193 11.2484732 -30 9 C-31 7.125 -31 7.125 -31 5 C-29.5625 2.75 -29.5625 2.75 -28 1 C-27.34 1.66 -26.68 2.32 -26 3 C-19.86255564 5.18188963 -11.4195839 5.13490538 -5.3046875 3.10546875 C-2.91658975 1.93987329 -2.91658975 1.93987329 0 0 Z " fill="#C61515" transform="translate(245,286)"/>
<path d="M0 0 C0.33 0 0.66 0 1 0 C1.02693575 2.12493141 1.04636628 4.24995912 1.0625 6.375 C1.07410156 7.55835938 1.08570313 8.74171875 1.09765625 9.9609375 C1 13 1 13 0 15 C-4.62 15 -9.24 15 -14 15 C-14.33 16.32 -14.66 17.64 -15 19 C-19.85407458 21.36480557 -25.6209688 22.09878021 -31 22 C-34 20.625 -34 20.625 -36 19 C-38.42130331 17.78934835 -39.48293659 18.05397467 -42.125 18.4375 C-43.40375 18.623125 -44.6825 18.80875 -46 19 C-46.66 18.01 -47.32 17.02 -48 16 C-47.34 16 -46.68 16 -46 16 C-46 15.01 -46 14.02 -46 13 C-46.66 13 -47.32 13 -48 13 C-47.67 11.68 -47.34 10.36 -47 9 C-46.67 9.66 -46.34 10.32 -46 11 C-44.24670114 13.1733261 -44.24670114 13.1733261 -42.125 13.1953125 C-40.72744615 13.14906991 -39.33054201 13.06667601 -37.9375 12.9453125 C-36 13 -36 13 -33 15 C-30.24582682 15.30066154 -27.57354853 15.50925299 -24.8125 15.625 C-23.68811523 15.68300781 -23.68811523 15.68300781 -22.54101562 15.7421875 C-20.69440801 15.83628216 -18.8472381 15.91922319 -17 16 C-16.67 15.01 -16.34 14.02 -16 13 C-15.16855469 12.93941406 -14.33710938 12.87882812 -13.48046875 12.81640625 C-12.39378906 12.73261719 -11.30710937 12.64882813 -10.1875 12.5625 C-9.10855469 12.48128906 -8.02960938 12.40007812 -6.91796875 12.31640625 C-3.94010095 12.09787539 -3.94010095 12.09787539 -1 11 C-0.67 7.37 -0.34 3.74 0 0 Z " fill="#E2100F" transform="translate(383,283)"/>
<path d="M0 0 C0.97453125 0.00902344 1.9490625 0.01804688 2.953125 0.02734375 C5.34400728 0.05078377 7.73437261 0.08359558 10.125 0.125 C10.455 0.785 10.785 1.445 11.125 2.125 C3.865 2.125 -3.395 2.125 -10.875 2.125 C-10.875 13.675 -10.875 25.225 -10.875 37.125 C-13.875 36.125 -13.875 36.125 -15.5 34.25 C-17.47729409 29.7561498 -18.22469177 25.03588881 -17.875 20.125 C-16.89469233 19.10568804 -15.8943618 18.10525585 -14.875 17.125 C-14.06329669 11.97548438 -14.39732201 6.77064624 -16.875 2.125 C-11.24066322 -0.28429552 -6.0060889 -0.10579831 0 0 Z " fill="#B41517" transform="translate(292.875,252.875)"/>
<path d="M0 0 C2 2 2 2 2.08203125 4.75 C1.99308594 5.8225 1.90414062 6.895 1.8125 8 C1.73644531 9.0725 1.66039062 10.145 1.58203125 11.25 C1 14 1 14 -2 16 C-2.58189266 18.42521494 -2.58189266 18.42521494 -2.6875 21.125 C-2.75324219 22.03507812 -2.81898438 22.94515625 -2.88671875 23.8828125 C-2.92410156 24.58148438 -2.96148437 25.28015625 -3 26 C-3.66 25.67 -4.32 25.34 -5 25 C-4.67 22.36 -4.34 19.72 -4 17 C-12.25 17 -20.5 17 -29 17 C-29 13.37 -29 9.74 -29 6 C-24.71 6 -20.42 6 -16 6 C-16 6.33 -16 6.66 -16 7 C-17.7015625 7.2165625 -17.7015625 7.2165625 -19.4375 7.4375 C-22.80777201 7.61171478 -22.80777201 7.61171478 -24 9 C-22.72125 9.0825 -21.4425 9.165 -20.125 9.25 C-17.9453125 9.390625 -17.9453125 9.390625 -16 10 C-15.34 11.32 -14.68 12.64 -14 14 C-9.38 13.67 -4.76 13.34 0 13 C0 8.71 0 4.42 0 0 Z " fill="#C11819" transform="translate(170,274)"/>
<path d="M0 0 C2.31 0 4.62 0 7 0 C7.7444115 3.32347716 8.12290131 6.38682544 8.11352539 9.7902832 C8.11344986 10.71086014 8.11337433 11.63143707 8.11329651 12.57991028 C8.10813522 13.5602977 8.10297394 14.54068512 8.09765625 15.55078125 C8.0962413 16.56472458 8.09482635 17.57866791 8.09336853 18.62333679 C8.08778328 21.85308821 8.07523345 25.08276962 8.0625 28.3125 C8.0574831 30.50585837 8.05292052 32.69921783 8.04882812 34.89257812 C8.03781868 40.26174253 8.0210952 45.63086626 8 51 C5.03 51.495 5.03 51.495 2 52 C2 51.01 2 50.02 2 49 C-0.64 49 -3.28 49 -6 49 C-6 48.67 -6 48.34 -6 48 C-0.555 47.505 -0.555 47.505 5 47 C4.67 32.81 4.34 18.62 4 4 C3.34 3.67 2.68 3.34 2 3 C2 2.34 2 1.68 2 1 C1.34 0.67 0.68 0.34 0 0 Z " fill="#E90D0D" transform="translate(192,251)"/>
<path d="M0 0 C1.00023193 0.00523682 2.00046387 0.01047363 3.03100586 0.01586914 C4.1105957 0.0190918 5.19018555 0.02231445 6.30249023 0.02563477 C8.00695312 0.03820312 8.00695312 0.03820312 9.74584961 0.05102539 C11.45611328 0.05779297 11.45611328 0.05779297 13.20092773 0.06469727 C16.02845312 0.07652792 18.85587601 0.09301129 21.68334961 0.11352539 C21.68334961 0.77352539 21.68334961 1.43352539 21.68334961 2.11352539 C20.69322876 2.15110962 20.69322876 2.15110962 19.68310547 2.18945312 C16.66219592 2.30624291 13.64153539 2.42858985 10.62084961 2.55102539 C9.06333984 2.61 9.06333984 2.61 7.47436523 2.67016602 C3.31105771 2.84198506 -0.75165752 3.02855939 -4.87524414 3.64868164 C-9.64819507 4.29338216 -14.5003552 4.11352539 -19.31665039 4.11352539 C-19.64665039 16.65352539 -19.97665039 29.19352539 -20.31665039 42.11352539 C-19.65665039 42.11352539 -18.99665039 42.11352539 -18.31665039 42.11352539 C-17.98665039 43.43352539 -17.65665039 44.75352539 -17.31665039 46.11352539 C-17.97665039 46.11352539 -18.63665039 46.11352539 -19.31665039 46.11352539 C-19.31665039 45.12352539 -19.31665039 44.13352539 -19.31665039 43.11352539 C-19.97665039 43.11352539 -20.63665039 43.11352539 -21.31665039 43.11352539 C-22.98242664 39.78197288 -22.43672895 36.0481648 -22.41430664 32.38696289 C-22.41289169 31.52414703 -22.41147675 30.66133118 -22.41001892 29.77236938 C-22.40441227 27.01105309 -22.39185866 24.24981727 -22.37915039 21.48852539 C-22.37413625 19.61873489 -22.36957319 17.74894313 -22.36547852 15.87915039 C-22.35444068 11.29057762 -22.33717159 6.70206516 -22.31665039 2.11352539 C-21.7463208 2.08846924 -21.17599121 2.06341309 -20.58837891 2.03759766 C-18.01838883 1.9219599 -15.44879512 1.79908915 -12.87915039 1.67602539 C-11.98131836 1.63670898 -11.08348633 1.59739258 -10.15844727 1.55688477 C-9.30444336 1.51499023 -8.45043945 1.4730957 -7.57055664 1.42993164 C-6.77979736 1.39327393 -5.98903809 1.35661621 -5.17431641 1.31884766 C-2.74081552 1.04988009 -2.59548943 0.12718965 0 0 Z " fill="#D84345" transform="translate(232.316650390625,247.886474609375)"/>
<path d="M0 0 C0.66 0 1.32 0 2 0 C2 6.93 2 13.86 2 21 C2.66 21 3.32 21 4 21 C3.77263707 23.96170129 3.51931015 26.91707687 3.25 29.875 C3.1571875 31.13763672 3.1571875 31.13763672 3.0625 32.42578125 C2.94648438 33.63427734 2.94648438 33.63427734 2.828125 34.8671875 C2.7652832 35.61081543 2.70244141 36.35444336 2.63769531 37.12060547 C2 39 2 39 0.17773438 40.24609375 C-3.09549888 41.37924894 -6.3329518 41.20897283 -9.75 41.125 C-10.44738281 41.11597656 -11.14476562 41.10695313 -11.86328125 41.09765625 C-13.57566958 41.07419888 -15.28788004 41.03833104 -17 41 C-17 39.02 -17 37.04 -17 35 C-11.39 35.66 -5.78 36.32 0 37 C0 24.79 0 12.58 0 0 Z " fill="#E40E10" transform="translate(381,255)"/>
<path d="M0 0 C2.31 0 4.62 0 7 0 C9 2 9 2 9.23046875 5.66015625 C9.22647733 7.12766864 9.21172158 8.59518209 9.1875 10.0625 C9.18685547 10.80822266 9.18621094 11.55394531 9.18554688 12.32226562 C9.14028159 17.85971841 9.14028159 17.85971841 8 19 C5.69 19 3.38 19 1 19 C0.67 12.73 0.34 6.46 0 0 Z " fill="#C21718" transform="translate(104,263)"/>
<path d="M0 0 C2.93447357 2.93447357 2.46158423 6.18259456 2.625 10.125 C2.66367188 10.87910156 2.70234375 11.63320313 2.7421875 12.41015625 C2.83651031 14.27303184 2.91934662 16.13648255 3 18 C7.04165139 18.02915731 11.0832755 18.04685173 15.125 18.0625 C16.26710938 18.07087891 17.40921875 18.07925781 18.5859375 18.08789062 C19.69453125 18.09111328 20.803125 18.09433594 21.9453125 18.09765625 C23.46922607 18.10551147 23.46922607 18.10551147 25.02392578 18.11352539 C28.09114726 17.99652309 30.98633134 17.56776417 34 17 C32.23112002 20.53775996 28.56983297 21.75099064 25 23 C21.39638387 23.4988988 17.88144455 23.47204282 14.25 23.375 C12.85201172 23.37306641 12.85201172 23.37306641 11.42578125 23.37109375 C6.73287279 23.31049665 4.32669495 23.16334747 0 21 C0 14.07 0 7.14 0 0 Z " fill="#E30F0E" transform="translate(87,272)"/>
<path d="M0 0 C2.625 1.375 2.625 1.375 3.77685547 3.79541016 C4.91242483 8.58807508 4.87225614 13.11605584 4.8203125 18.0234375 C4.8174826 19.03596588 4.81465271 20.04849426 4.81173706 21.09170532 C4.80058254 24.31125938 4.77548646 27.53053065 4.75 30.75 C4.7399641 32.93879805 4.73083931 35.12760049 4.72265625 37.31640625 C4.7006587 42.66936658 4.66722824 48.02216308 4.625 53.375 C3.965 53.375 3.305 53.375 2.625 53.375 C2.295 36.545 1.965 19.715 1.625 2.375 C-1.41775136 2.98355027 -4.38145224 3.59889502 -7.375 4.375 C-7.375 3.385 -7.375 2.395 -7.375 1.375 C-9.355 1.375 -11.335 1.375 -13.375 1.375 C-13.705 2.035 -14.035 2.695 -14.375 3.375 C-15.035 2.715 -15.695 2.055 -16.375 1.375 C-10.92740249 -1.34879876 -5.8136659 -1.0766048 0 0 Z " fill="#DE6C6B" transform="translate(197.375,248.625)"/>
<path d="M0 0 C3 4 3 4 4.25 6.125 C6.76588266 8.82058856 9.47641521 9.20220722 13 10 C13 10.33 13 10.66 13 11 C10.03 11 7.06 11 4 11 C4 11.33 4 11.66 4 12 C9.44730992 14.22597714 14.57787577 14.42652499 20.375 14.625 C21.30183594 14.66367187 22.22867188 14.70234375 23.18359375 14.7421875 C25.4555377 14.83587591 27.72748596 14.92159348 30 15 C30 13.35 30 11.7 30 10 C30.99 10 31.98 10 33 10 C33 12.31 33 14.62 33 17 C29.33348753 17.08796382 25.66725082 17.14071247 22 17.1875 C20.97003906 17.21263672 19.94007813 17.23777344 18.87890625 17.26367188 C12.49885379 17.32462779 7.81458023 16.66268638 2 14 C2 13.34 2 12.68 2 12 C1.01 11.67 0.02 11.34 -1 11 C-1 10.34 -1 9.68 -1 9 C-2.216875 9.020625 -3.43375 9.04125 -4.6875 9.0625 C-7.91977322 9.06824116 -10.84934741 8.78766315 -14 8 C-14 7.67 -14 7.34 -14 7 C-11.89611431 6.94597726 -9.79183286 6.90719744 -7.6875 6.875 C-5.92986328 6.84019531 -5.92986328 6.84019531 -4.13671875 6.8046875 C-1 7 -1 7 2 9 C2.33 8.67 2.66 8.34 3 8 C2.505 7.608125 2.01 7.21625 1.5 6.8125 C-0.45593143 4.44908285 -0.24207973 2.98564997 0 0 Z " fill="#D43F41" transform="translate(267,288)"/>
<path d="M0 0 C3.43308951 -0.45774527 5.59472101 -0.1621116 8.8125 1.125 C11 3 11 3 11.8125 6.1875 C11.874375 7.115625 11.93625 8.04375 12 9 C14.64 9 17.28 9 20 9 C20.33 9.66 20.66 10.32 21 11 C22.65 11 24.3 11 26 11 C22.9896755 14.0103245 20.77096379 13.97819673 16.546875 14.09765625 C14.66742188 14.08025391 14.66742188 14.08025391 12.75 14.0625 C11.48671875 14.05347656 10.2234375 14.04445313 8.921875 14.03515625 C7.95765625 14.02355469 6.9934375 14.01195312 6 14 C6 10.37 6 6.74 6 3 C3.36 3 0.72 3 -2 3 C-1.34 2.01 -0.68 1.02 0 0 Z " fill="#E43B3C" transform="translate(174,291)"/>
<path d="M0 0 C0.99 0.495 0.99 0.495 2 1 C1.67 2.65 1.34 4.3 1 6 C2.98 6.495 2.98 6.495 5 7 C5 15.58 5 24.16 5 33 C7.97 33.33 10.94 33.66 14 34 C14 29.05 14 24.1 14 19 C15.65 19 17.3 19 19 19 C20.75163456 22.77222089 21.22490027 25.666639 21.125 29.8125 C21.10695313 30.78832031 21.08890625 31.76414062 21.0703125 32.76953125 C21.04710937 33.50558594 21.02390625 34.24164063 21 35 C18.63339618 32.63339618 18.69009474 31.86036242 18.4375 28.625 C18.1930553 25.64177688 17.7978455 22.88806883 17 20 C16.34 20 15.68 20 15 20 C15 24.95 15 29.9 15 35 C11.37 35 7.74 35 4 35 C3.13495257 31.53981027 2.88286507 29.08428675 2.90234375 25.578125 C2.90556641 24.55332031 2.90878906 23.52851563 2.91210938 22.47265625 C2.92048828 21.40917969 2.92886719 20.34570312 2.9375 19.25 C2.94201172 18.17105469 2.94652344 17.09210938 2.95117188 15.98046875 C2.96294273 13.32025617 2.97938601 10.66015635 3 8 C2.01 8 1.02 8 0 8 C0 5.36 0 2.72 0 0 Z " fill="#3E0000" transform="translate(248,255)"/>
<path d="M0 0 C0.78865448 0.00187317 1.57730896 0.00374634 2.38986206 0.00567627 C4.05243169 0.01238474 5.71498586 0.02627536 7.37744141 0.046875 C9.92755738 0.07809892 12.47705533 0.08785452 15.02734375 0.09375 C16.64323674 0.10291768 18.25912342 0.1132927 19.875 0.125 C21.0218779 0.13137482 21.0218779 0.13137482 22.19192505 0.13787842 C27.5702261 0.2108943 27.5702261 0.2108943 29.8046875 1.328125 C29.4746875 3.638125 29.1446875 5.948125 28.8046875 8.328125 C28.1446875 8.328125 27.4846875 8.328125 26.8046875 8.328125 C26.3096875 5.853125 26.3096875 5.853125 25.8046875 3.328125 C15.9046875 3.328125 6.0046875 3.328125 -4.1953125 3.328125 C-4.5253125 5.308125 -4.8553125 7.288125 -5.1953125 9.328125 C-7.1328125 9.015625 -7.1328125 9.015625 -9.1953125 8.328125 C-9.5253125 7.338125 -9.8553125 6.348125 -10.1953125 5.328125 C-10.8553125 4.668125 -11.5153125 4.008125 -12.1953125 3.328125 C-8.55566864 -0.29121235 -4.83876701 -0.07855412 0 0 Z " fill="#E90D0D" transform="translate(130.1953125,250.671875)"/>
<path d="M0 0 C2.31 0 4.62 0 7 0 C6.34 0.66 5.68 1.32 5 2 C4.01 2 3.02 2 2 2 C2 16.52 2 31.04 2 46 C9.4348813 45.59256192 9.4348813 45.59256192 16.8684082 45.16162109 C18.25805786 45.09322021 18.25805786 45.09322021 19.67578125 45.0234375 C21.0975769 44.94488525 21.0975769 44.94488525 22.5480957 44.86474609 C25 45 25 45 28 47 C23.63495295 47.83713231 19.50500795 48.1348177 15.0625 48.125 C13.89847656 48.12757813 12.73445313 48.13015625 11.53515625 48.1328125 C8 48 8 48 1 47 C0.67 31.49 0.34 15.98 0 0 Z " fill="#EA8C8D" transform="translate(84,249)"/>
<path d="M0 0 C1.32 0 2.64 0 4 0 C4.33 8.91 4.66 17.82 5 27 C8.3 27 11.6 27 15 27 C15 27.33 15 27.66 15 28 C13.18757948 28.02687279 11.37504767 28.04633715 9.5625 28.0625 C8.55316406 28.07410156 7.54382813 28.08570313 6.50390625 28.09765625 C4 28 4 28 3 27 C2.63239269 24.67182036 2.29758419 22.3381615 2 20 C1.01 20.99 0.02 21.98 -1 23 C-0.67 15.41 -0.34 7.82 0 0 Z " fill="#CF1416" transform="translate(247,263)"/>
<path d="M0 0 C5.87156961 -0.04955876 11.74301655 -0.08579487 17.61474609 -0.10986328 C19.61086143 -0.11990052 21.60696214 -0.1335332 23.60302734 -0.15087891 C26.47757587 -0.17522735 29.35192941 -0.18650605 32.2265625 -0.1953125 C33.55815903 -0.21079636 33.55815903 -0.21079636 34.91665649 -0.22659302 C39.68884625 -0.2274508 43.51492146 0.14565422 48 2 C48 2.33 48 2.66 48 3 C43.03377651 3.02465098 38.06758834 3.04283649 33.10131836 3.05493164 C31.41055684 3.0599719 29.71979971 3.06680405 28.02905273 3.07543945 C25.60399293 3.08751857 23.17899056 3.09323123 20.75390625 3.09765625 C19.61327477 3.10539818 19.61327477 3.10539818 18.44960022 3.11329651 C16.6326743 3.11349238 14.81586873 3.06197277 13 3 C12.67 2.67 12.34 2.34 12 2 C9.98405418 1.76572222 7.961526 1.58663876 5.9375 1.4375 C4.83277344 1.35371094 3.72804688 1.26992187 2.58984375 1.18359375 C1.73519531 1.12300781 0.88054687 1.06242188 0 1 C0 0.67 0 0.34 0 0 Z " fill="#DB5959" transform="translate(260,248)"/>
<path d="M0 0 C1.67642578 0.01353516 1.67642578 0.01353516 3.38671875 0.02734375 C6.13303462 0.05081654 8.87890472 0.08365272 11.625 0.125 C11.625 0.455 11.625 0.785 11.625 1.125 C10.97426514 1.14481934 10.32353027 1.16463867 9.65307617 1.18505859 C6.70580849 1.28029299 3.75925115 1.38997818 0.8125 1.5 C-0.21166016 1.5309375 -1.23582031 1.561875 -2.29101562 1.59375 C-3.76538086 1.65175781 -3.76538086 1.65175781 -5.26953125 1.7109375 C-6.17550049 1.7423584 -7.08146973 1.7737793 -8.01489258 1.80615234 C-10.64025392 1.98527919 -10.64025392 1.98527919 -13.375 4.125 C-12.715 4.785 -12.055 5.445 -11.375 6.125 C-11.705 7.115 -12.035 8.105 -12.375 9.125 C-12.91415039 8.6405542 -13.45330078 8.1561084 -14.00878906 7.65698242 C-16.93268283 5.76393317 -18.77050128 5.70164538 -22.234375 5.61328125 C-23.34941406 5.57783203 -24.46445313 5.54238281 -25.61328125 5.50585938 C-26.77214844 5.48330078 -27.93101563 5.46074219 -29.125 5.4375 C-30.29933594 5.40333984 -31.47367188 5.36917969 -32.68359375 5.33398438 C-35.58063389 5.25154827 -38.47737298 5.18238189 -41.375 5.125 C-38.26780863 3.05353909 -37.46261 2.86575897 -33.91796875 2.78125 C-32.61956055 2.73677734 -32.61956055 2.73677734 -31.29492188 2.69140625 C-30.39322266 2.66949219 -29.49152344 2.64757812 -28.5625 2.625 C-21.92030074 2.57278063 -21.92030074 2.57278063 -15.51171875 1.1015625 C-10.42746198 -0.48133189 -5.28776847 -0.08096701 0 0 Z " fill="#BC1415" transform="translate(132.375,249.875)"/>
<path d="M0 0 C3.34004576 -0.08886737 6.67920325 -0.15031953 10.02001953 -0.20068359 C11.00615234 -0.23033203 11.99228516 -0.25998047 13.00830078 -0.29052734 C13.90806641 -0.29826172 14.80783203 -0.30599609 15.73486328 -0.31396484 C16.50822021 -0.32854736 17.28157715 -0.34312988 18.07836914 -0.3581543 C20.86474406 0.29524706 21.61118665 1.74791585 23.08251953 4.11181641 C22.75251953 4.77181641 22.42251953 5.43181641 22.08251953 6.11181641 C20.76251953 5.78181641 19.44251953 5.45181641 18.08251953 5.11181641 C18.08251953 3.79181641 18.08251953 2.47181641 18.08251953 1.11181641 C15.26963248 1.25201332 12.45735068 1.39869595 9.64501953 1.54931641 C8.84257812 1.58863281 8.04013672 1.62794922 7.21337891 1.66845703 C3.33012392 1.517246 3.33012392 1.517246 0.08251953 3.11181641 C-12.51503928 3.83410477 -25.3300653 2.69511294 -37.91748047 2.11181641 C-37.91748047 1.78181641 -37.91748047 1.45181641 -37.91748047 1.11181641 C-27.31240698 0.75655022 -16.70682432 0.44148945 -6.0993042 0.16900635 C-4.06612079 0.11571256 -2.03305376 0.05802933 0 0 Z " fill="#DF6866" transform="translate(157.91748046875,247.88818359375)"/>
<path d="M0 0 C2.97 0.495 2.97 0.495 6 1 C6.31806054 8.7276932 6.32270836 14.93924474 3 22 C2.67 22 2.34 22 2 22 C1.96261719 21.09636719 1.92523438 20.19273437 1.88671875 19.26171875 C1.82097656 18.08222656 1.75523437 16.90273438 1.6875 15.6875 C1.62949219 14.51574219 1.57148438 13.34398437 1.51171875 12.13671875 C0.98395232 8.9016314 0.57619276 7.91315119 -2 6 C-1.34 4.02 -0.68 2.04 0 0 Z " fill="#E90D0C" transform="translate(311,266)"/>
<path d="M0 0 C5.5378125 -0.185625 5.5378125 -0.185625 11.1875 -0.375 C12.3427417 -0.42962402 13.4979834 -0.48424805 14.68823242 -0.54052734 C22.00853246 -0.65957743 22.00853246 -0.65957743 24.84301758 1.22607422 C27.40033481 4.11695457 28.00189211 6.02346215 28.3125 9.875 C28.209375 10.90625 28.10625 11.9375 28 13 C27.67 13 27.34 13 27 13 C27 11.35 27 9.7 27 8 C26.34 8 25.68 8 25 8 C25 7.01 25 6.02 25 5 C24.34 5 23.68 5 23 5 C23 4.01 23 3.02 23 2 C22.00033203 2.01740234 22.00033203 2.01740234 20.98046875 2.03515625 C20.05878906 2.04417969 19.13710938 2.05320312 18.1875 2.0625 C16.84751953 2.07990234 16.84751953 2.07990234 15.48046875 2.09765625 C10.64170251 1.9618884 5.82079094 1.43825372 1 1 C1 12.22 1 23.44 1 35 C0.67 35 0.34 35 0 35 C0 23.45 0 11.9 0 0 Z " fill="#430000" transform="translate(282,255)"/>
<path d="M0 0 C0.99 0 1.98 0 3 0 C3.66 2.64 4.32 5.28 5 8 C3 7 3 7 2 4 C0.68 6.97 -0.64 9.94 -2 13 C-3.03898437 12.73445313 -4.07796875 12.46890625 -5.1484375 12.1953125 C-12.73270717 10.2701308 -20.29852295 8.40700061 -28 7 C-28 6.67 -28 6.34 -28 6 C-24.04 6 -20.08 6 -16 6 C-16 5.34 -16 4.68 -16 4 C-13.03 4.495 -13.03 4.495 -10 5 C-11.32 5.33 -12.64 5.66 -14 6 C-14 6.66 -14 7.32 -14 8 C-8.06 8.99 -8.06 8.99 -2 10 C-1.855625 8.906875 -1.71125 7.81375 -1.5625 6.6875 C-1 3 -1 3 0 0 Z " fill="#E24445" transform="translate(330,291)"/>
<path d="M0 0 C0.79921875 0.00902344 1.5984375 0.01804688 2.421875 0.02734375 C3.02515625 0.03894531 3.6284375 0.05054688 4.25 0.0625 C6.49480642 5.67451606 8.08348574 11.13386283 9.25 17.0625 C8.26 17.0625 7.27 17.0625 6.25 17.0625 C6.25 14.4225 6.25 11.7825 6.25 9.0625 C5.59 9.0625 4.93 9.0625 4.25 9.0625 C3.92 7.0825 3.59 5.1025 3.25 3.0625 C-0.38 2.7325 -4.01 2.4025 -7.75 2.0625 C-7.75 12.6225 -7.75 23.1825 -7.75 34.0625 C-6.43 34.3925 -5.11 34.7225 -3.75 35.0625 C-5.4 35.0625 -7.05 35.0625 -8.75 35.0625 C-8.75 23.8425 -8.75 12.6225 -8.75 1.0625 C-5.48118027 0.24529507 -3.28000931 -0.04823543 0 0 Z " fill="#380001" transform="translate(168.75,252.9375)"/>
<path d="M0 0 C0.33 0 0.66 0 1 0 C1 6.6 1 13.2 1 20 C0.34 20 -0.32 20 -1 20 C-3.86964374 13.74827614 -5.51137226 8.90352555 -5 2 C-3.35 2 -1.7 2 0 2 C0 1.34 0 0.68 0 0 Z " fill="#E20F10" transform="translate(348,262)"/>
<path d="M0 0 C0.33 0 0.66 0 1 0 C1 7.92 1 15.84 1 24 C0.67 24 0.34 24 0 24 C-0.33 20.04 -0.66 16.08 -1 12 C-1 13.65 -1 15.3 -1 17 C-1.66 17 -2.32 17 -3 17 C-3.33 16.34 -3.66 15.68 -4 15 C-5.11375 15.061875 -6.2275 15.12375 -7.375 15.1875 C-8.57125 15.125625 -9.7675 15.06375 -11 15 C-13 12 -13 12 -12.625 9.8125 C-12.41875 9.214375 -12.2125 8.61625 -12 8 C-11.67 9.65 -11.34 11.3 -11 13 C-9.02 13 -7.04 13 -5 13 C-4.34 10.69 -3.68 8.38 -3 6 C-2.34 6 -1.68 6 -1 6 C-1.020625 5.195625 -1.04125 4.39125 -1.0625 3.5625 C-1 1 -1 1 0 0 Z " fill="#C51315" transform="translate(185,274)"/>
<path d="M0 0 C1.00023193 0.00523682 2.00046387 0.01047363 3.03100586 0.01586914 C4.1105957 0.0190918 5.19018555 0.02231445 6.30249023 0.02563477 C8.00695312 0.03820312 8.00695312 0.03820312 9.74584961 0.05102539 C11.45611328 0.05779297 11.45611328 0.05779297 13.20092773 0.06469727 C16.02845312 0.07652792 18.85587601 0.09301129 21.68334961 0.11352539 C21.68334961 0.77352539 21.68334961 1.43352539 21.68334961 2.11352539 C7.33774305 2.84759562 -6.95231661 3.25512342 -21.31665039 3.11352539 C-21.31665039 5.42352539 -21.31665039 7.73352539 -21.31665039 10.11352539 C-21.64665039 10.11352539 -21.97665039 10.11352539 -22.31665039 10.11352539 C-22.31665039 7.47352539 -22.31665039 4.83352539 -22.31665039 2.11352539 C-21.7463208 2.08846924 -21.17599121 2.06341309 -20.58837891 2.03759766 C-18.01838883 1.9219599 -15.44879512 1.79908915 -12.87915039 1.67602539 C-11.98131836 1.63670898 -11.08348633 1.59739258 -10.15844727 1.55688477 C-9.30444336 1.51499023 -8.45043945 1.4730957 -7.57055664 1.42993164 C-6.77979736 1.39327393 -5.98903809 1.35661621 -5.17431641 1.31884766 C-2.74081552 1.04988009 -2.59548943 0.12718965 0 0 Z " fill="#E47978" transform="translate(232.316650390625,247.886474609375)"/>
<path d="M0 0 C2.64 0 5.28 0 8 0 C8 0.66 8 1.32 8 2 C6.35 2 4.7 2 3 2 C2.34 5.3 1.68 8.6 1 12 C-7.625 11.125 -7.625 11.125 -11 10 C-11 9.34 -11 8.68 -11 8 C-7.7 8 -4.4 8 -1 8 C-0.67 5.36 -0.34 2.72 0 0 Z " fill="#EB0C0B" transform="translate(327,289)"/>
<path d="M0 0 C0.33 0 0.66 0 1 0 C1 15.18 1 30.36 1 46 C-1.97 46.495 -1.97 46.495 -5 47 C-5 46.01 -5 45.02 -5 44 C-7.64 44 -10.28 44 -13 44 C-13 43.67 -13 43.34 -13 43 C-8.05 42.505 -8.05 42.505 -3 42 C-3 42.99 -3 43.98 -3 45 C-2.01 45 -1.02 45 0 45 C0 30.15 0 15.3 0 0 Z " fill="#D61415" transform="translate(199,256)"/>
<path d="M0 0 C1.32 0.33 2.64 0.66 4 1 C3.67 1.33 3.34 1.66 3 2 C5.64 2.33 8.28 2.66 11 3 C11.66 4.65 12.32 6.3 13 8 C8.71 8 4.42 8 0 8 C0 5.36 0 2.72 0 0 Z " fill="#E80D0E" transform="translate(143,281)"/>
<path d="M0 0 C0 5.28 0 10.56 0 16 C-4 14 -4 14 -5 12 C-5.06996014 10.29297265 -5.08440154 8.58331997 -5.0625 6.875 C-5.05347656 5.96492188 -5.04445313 5.05484375 -5.03515625 4.1171875 C-5.02355469 3.41851562 -5.01195312 2.71984375 -5 2 C-1.125 0 -1.125 0 0 0 Z " fill="#CF1213" transform="translate(281,272)"/>
<path d="M0 0 C1.47968324 0.14049518 2.95874516 0.28754826 4.4375 0.4375 C5.67306641 0.55931641 5.67306641 0.55931641 6.93359375 0.68359375 C9 1 9 1 10 2 C12.86267567 2.07325168 15.700719 2.09238205 18.5625 2.0625 C19.77196289 2.05573242 19.77196289 2.05573242 21.00585938 2.04882812 C23.00393756 2.03700518 25.00197783 2.01906914 27 2 C27 2.99 27 3.98 27 5 C23.81257885 5.05865035 20.62529882 5.09381259 17.4375 5.125 C16.09461914 5.15013672 16.09461914 5.15013672 14.72460938 5.17578125 C9.39910095 5.21479596 5.03629311 4.75475782 0 3 C0 2.01 0 1.02 0 0 Z " fill="#E70E0C" transform="translate(270,298)"/>
<path d="M0 0 C2.02408755 0.09002398 4.04544287 0.24641038 6.0625 0.4375 C7.71958984 0.59025391 7.71958984 0.59025391 9.41015625 0.74609375 C10.26480469 0.82988281 11.11945313 0.91367187 12 1 C12 1.33 12 1.66 12 2 C11.39671875 1.97679687 10.7934375 1.95359375 10.171875 1.9296875 C9.37265625 1.91164063 8.5734375 1.89359375 7.75 1.875 C6.56664062 1.84019531 6.56664062 1.84019531 5.359375 1.8046875 C2.997393 1.8428549 2.997393 1.8428549 1.1394043 2.99560547 C-1.28863026 4.13550438 -2.92037962 4.25795491 -5.58984375 4.265625 C-6.89018555 4.26949219 -6.89018555 4.26949219 -8.21679688 4.2734375 C-9.56354492 4.26183594 -9.56354492 4.26183594 -10.9375 4.25 C-12.27844727 4.26160156 -12.27844727 4.26160156 -13.64648438 4.2734375 C-18.19136978 4.25994118 -21.88117468 4.16689766 -26 2 C-22.93557957 1.10080833 -20.23863019 0.89411561 -17.05078125 0.9375 C-16.12072266 0.94523437 -15.19066406 0.95296875 -14.23242188 0.9609375 C-13.26884766 0.97382813 -12.30527344 0.98671875 -11.3125 1 C-9.39198188 1.02538689 -7.47140019 1.04646143 -5.55078125 1.0625 C-4.70169189 1.07410156 -3.85260254 1.08570313 -2.9777832 1.09765625 C-0.99795249 1.22174393 -0.99795249 1.22174393 0 0 Z " fill="#D44F52" transform="translate(241,293)"/>
<path d="M0 0 C1.65 0 3.3 0 5 0 C5.33 3.3 5.66 6.6 6 10 C3.69 10 1.38 10 -1 10 C-1.02689216 8.52093108 -1.04634621 7.04172517 -1.0625 5.5625 C-1.07410156 4.73878906 -1.08570313 3.91507812 -1.09765625 3.06640625 C-1 1 -1 1 0 0 Z " fill="#A01213" transform="translate(294,276)"/>
<path d="M0 0 C9.9 0 19.8 0 30 0 C30 0.33 30 0.66 30 1 C20.43 1 10.86 1 1 1 C0.67 9.25 0.34 17.5 0 26 C-0.33 26 -0.66 26 -1 26 C-1.04898438 24.73542969 -1.09796875 23.47085937 -1.1484375 22.16796875 C-1.2234738 20.50779053 -1.29902127 18.84763536 -1.375 17.1875 C-1.42140625 15.93743164 -1.42140625 15.93743164 -1.46875 14.66210938 C-1.50742188 13.85966797 -1.54609375 13.05722656 -1.5859375 12.23046875 C-1.6173584 11.49207764 -1.6487793 10.75368652 -1.68115234 9.99291992 C-1.90834614 7.68650412 -1.90834614 7.68650412 -4 5 C-2.68 5.33 -1.36 5.66 0 6 C0 4.02 0 2.04 0 0 Z " fill="#B51516" transform="translate(125,254)"/>
<path d="M0 0 C-0.33 4.62 -0.66 9.24 -1 14 C5.27 14 11.54 14 18 14 C18 14.33 18 14.66 18 15 C11.4 15 4.8 15 -2 15 C-2.33 11.04 -2.66 7.08 -3 3 C-7.455 4.485 -7.455 4.485 -12 6 C-12 5.01 -12 4.02 -12 3 C-8.06769671 0.37846447 -4.67664739 0 0 0 Z " fill="#D45354" transform="translate(125,290)"/>
<path d="M0 0 C1.32 0 2.64 0 4 0 C4 5.28 4 10.56 4 16 C2.68 16 1.36 16 0 16 C0 10.72 0 5.44 0 0 Z " fill="#EB0C0D" transform="translate(107,265)"/>
<path d="M0 0 C0.33 0 0.66 0 1 0 C1.02693575 2.12493141 1.04636628 4.24995912 1.0625 6.375 C1.07410156 7.55835938 1.08570313 8.74171875 1.09765625 9.9609375 C1 13 1 13 0 15 C-4.62 15 -9.24 15 -14 15 C-14.33 16.32 -14.66 17.64 -15 19 C-16.98 19.33 -18.96 19.66 -21 20 C-20.360625 19.401875 -19.72125 18.80375 -19.0625 18.1875 C-16.79689611 16.09189663 -16.79689611 16.09189663 -16 13 C-15.16855469 12.93941406 -14.33710938 12.87882812 -13.48046875 12.81640625 C-12.39378906 12.73261719 -11.30710937 12.64882813 -10.1875 12.5625 C-9.10855469 12.48128906 -8.02960938 12.40007812 -6.91796875 12.31640625 C-3.94010095 12.09787539 -3.94010095 12.09787539 -1 11 C-0.67 7.37 -0.34 3.74 0 0 Z " fill="#DE4D4C" transform="translate(383,283)"/>
<path d="M0 0 C5.28 0 10.56 0 16 0 C16 0.33 16 0.66 16 1 C29.365 1.495 29.365 1.495 43 2 C43 2.33 43 2.66 43 3 C37.84050889 3.04960315 32.681158 3.08581559 27.52148438 3.10986328 C25.76787903 3.11989313 24.0142903 3.13352029 22.26074219 3.15087891 C19.73368215 3.1752603 17.2068441 3.1865134 14.6796875 3.1953125 C13.51214432 3.21079636 13.51214432 3.21079636 12.3210144 3.22659302 C7.81634138 3.2275122 4.24560912 2.70651048 0 1 C0 0.67 0 0.34 0 0 Z " fill="#D81514" transform="translate(305,251)"/>
<path d="M0 0 C0.99 0 1.98 0 3 0 C3 2.31 3 4.62 3 7 C-4.59 7 -12.18 7 -20 7 C-20 6.34 -20 5.68 -20 5 C-13.4 5 -6.8 5 0 5 C0 3.35 0 1.7 0 0 Z " fill="#CE3F41" transform="translate(297,298)"/>
<path d="M0 0 C0.66 2.64 1.32 5.28 2 8 C0.68 8.33 -0.64 8.66 -2 9 C-2.66 8.34 -3.32 7.68 -4 7 C-4 6.01 -4 5.02 -4 4 C-6.97 4 -9.94 4 -13 4 C-11 1 -11 1 -7.625 0.3125 C-4 0 -4 0 0 0 Z " fill="#E40F0C" transform="translate(158,280)"/>
<path d="M0 0 C0.33 0 0.66 0 1 0 C1 7.59 1 15.18 1 23 C0.34 22.67 -0.32 22.34 -1 22 C-1 20.02 -1 18.04 -1 16 C-1.99 16 -2.98 16 -4 16 C-4 13.69 -4 11.38 -4 9 C-3.01 9.495 -3.01 9.495 -2 10 C-1.34 6.7 -0.68 3.4 0 0 Z " fill="#AF0E10" transform="translate(159,264)"/>
<path d="M0 0 C0.33 0 0.66 0 1 0 C1.33 1.98 1.66 3.96 2 6 C5.96 6.33 9.92 6.66 14 7 C14 9.31 14 11.62 14 14 C9.38 14 4.76 14 0 14 C0 13.67 0 13.34 0 13 C5.94 12.505 5.94 12.505 12 12 C12 11.01 12 10.02 12 9 C8.04 9 4.08 9 0 9 C0 6.03 0 3.06 0 0 Z " fill="#2C0000" transform="translate(141,266)"/>
<path d="M0 0 C1.66611905 -0.042721 3.33382885 -0.04063832 5 0 C5.33 0.33 5.66 0.66 6 1 C7.34267413 1.08631874 8.68974322 1.10706473 10.03515625 1.09765625 C10.84404297 1.09443359 11.65292969 1.09121094 12.48632812 1.08789062 C13.33646484 1.07951172 14.18660156 1.07113281 15.0625 1.0625 C15.91650391 1.05798828 16.77050781 1.05347656 17.65039062 1.04882812 C19.76695663 1.03700373 21.88348685 1.01906769 24 1 C24 1.99 24 2.98 24 4 C20.56257082 4.05802698 17.12526747 4.09360486 13.6875 4.125 C12.71103516 4.14175781 11.73457031 4.15851563 10.72851562 4.17578125 C9.79072266 4.18222656 8.85292969 4.18867188 7.88671875 4.1953125 C7.02264404 4.20578613 6.15856934 4.21625977 5.26831055 4.22705078 C3 4 3 4 0 2 C0 1.34 0 0.68 0 0 Z " fill="#E80D0D" transform="translate(216,291)"/>
<path d="M0 0 C2.05123248 2.05123248 2.64147118 3.27005063 3.625 5.9375 C3.88539063 6.62714844 4.14578125 7.31679688 4.4140625 8.02734375 C5 10 5 10 5 13 C2.69 13 0.38 13 -2 13 C-2.19294408 8.17639811 -1.75747614 4.50353262 0 0 Z " fill="#C81313" transform="translate(330,267)"/>
<path d="M0 0 C0.33 0 0.66 0 1 0 C3.00060017 6.61615806 3.24246007 12.61503266 3.125 19.5 C3.11597656 20.51320313 3.10695313 21.52640625 3.09765625 22.5703125 C3.07429007 25.04712801 3.04153168 27.52343379 3 30 C2.01 29.67 1.02 29.34 0 29 C0.66 28.67 1.32 28.34 2 28 C1.67 23.05 1.34 18.1 1 13 C-0.32 13.33 -1.64 13.66 -3 14 C-3.33 15.32 -3.66 16.64 -4 18 C-4.1875 15.6875 -4.1875 15.6875 -4 13 C-3.5153125 12.5565625 -3.030625 12.113125 -2.53125 11.65625 C-0.46489787 9.42121606 -0.50723568 7.81142948 -0.3125 4.8125 C-0.21388672 3.46091797 -0.21388672 3.46091797 -0.11328125 2.08203125 C-0.05720703 1.05142578 -0.05720703 1.05142578 0 0 Z " fill="#AF1514" transform="translate(279,260)"/>
<path d="M0 0 C2.76223278 2.76223278 2.57856291 5.20706617 3 9 C4.98 9.66 6.96 10.32 9 11 C9 11.33 9 11.66 9 12 C7.41676312 12.027193 5.83338938 12.04648306 4.25 12.0625 C2.92742187 12.07990234 2.92742187 12.07990234 1.578125 12.09765625 C-0.7818838 12.00826198 -2.74498524 11.66912821 -5 11 C-4.67 10.34 -4.34 9.68 -4 9 C-3.30799196 7.46035159 -2.62102116 5.91843487 -1.9375 4.375 C-1.57527344 3.55773437 -1.21304688 2.74046875 -0.83984375 1.8984375 C-0.42412109 0.95871094 -0.42412109 0.95871094 0 0 Z " fill="#EA0C0B" transform="translate(248,281)"/>
<path d="M0 0 C1.89551022 -0.05441656 3.7914792 -0.09298035 5.6875 -0.125 C6.74324219 -0.14820313 7.79898437 -0.17140625 8.88671875 -0.1953125 C12.02251859 0.00141271 14.17645373 0.66942346 17 2 C17 2.66 17 3.32 17 4 C20.3 4 23.6 4 27 4 C27 4.33 27 4.66 27 5 C17.98733185 6.4525271 17.98733185 6.4525271 14 4.625 C13.34 4.08875 12.68 3.5525 12 3 C9.57869669 1.78934835 8.51706341 2.05397467 5.875 2.4375 C4.59625 2.623125 3.3175 2.80875 2 3 C1.34 2.01 0.68 1.02 0 0 Z " fill="#E46B6C" transform="translate(335,299)"/>
<path d="M0 0 C0.66 0 1.32 0 2 0 C3.90608098 3.21182149 4.22266247 5.53882603 4.125 9.25 C4.10695313 10.14203125 4.08890625 11.0340625 4.0703125 11.953125 C4.03550781 12.96632813 4.03550781 12.96632813 4 14 C2.68 14.33 1.36 14.66 0 15 C0 10.05 0 5.1 0 0 Z " fill="#D01416" transform="translate(263,275)"/>
<path d="M0 0 C4.875 0.875 4.875 0.875 6 2 C5.71269945 4.33944736 5.38063221 6.6739143 5 9 C3.35 9 1.7 9 0 9 C0 6.03 0 3.06 0 0 Z " fill="#AB1615" transform="translate(294,261)"/>
<path d="M0 0 C0.33 0 0.66 0 1 0 C1 2.97 1 5.94 1 9 C2.98 9 4.96 9 7 9 C6.88529863 10.75070517 6.75780972 12.50057536 6.625 14.25 C6.55539062 15.22453125 6.48578125 16.1990625 6.4140625 17.203125 C6 20 6 20 4 24 C4 19.71 4 15.42 4 11 C2.68 10.67 1.36 10.34 0 10 C0 6.7 0 3.4 0 0 Z " fill="#A41012" transform="translate(313,256)"/>
<path d="M0 0 C2.89608593 -0.05413245 5.79115195 -0.09373641 8.6875 -0.125 C9.91243164 -0.15013672 9.91243164 -0.15013672 11.16210938 -0.17578125 C19.31304614 -0.24178074 19.31304614 -0.24178074 23 2 C25.18192653 5.00504851 25.22080137 7.6095478 25.125 11.25 C25.10695313 12.14203125 25.08890625 13.0340625 25.0703125 13.953125 C25.04710937 14.62859375 25.02390625 15.3040625 25 16 C24.67 16 24.34 16 24 16 C23.95101563 15.38511719 23.90203125 14.77023437 23.8515625 14.13671875 C23.77679688 13.32847656 23.70203125 12.52023437 23.625 11.6875 C23.55539062 10.88699219 23.48578125 10.08648437 23.4140625 9.26171875 C22.88644224 6.37971753 21.80848293 4.58835144 19.421875 2.8515625 C15.75505791 1.5622623 12.11159739 1.52869542 8.25 1.375 C7.45722656 1.33632812 6.66445313 1.29765625 5.84765625 1.2578125 C3.89880584 1.163892 1.94943549 1.08087178 0 1 C0 0.67 0 0.34 0 0 Z " fill="#350000" transform="translate(254,254)"/>
<path d="M0 0 C0.33 0 0.66 0 1 0 C1 2.31 1 4.62 1 7 C-1.24973447 7.054138 -3.49984383 7.09285491 -5.75 7.125 C-7.00296875 7.14820313 -8.2559375 7.17140625 -9.546875 7.1953125 C-13 7 -13 7 -17 5 C-11.72 5 -6.44 5 -1 5 C-0.67 3.35 -0.34 1.7 0 0 Z " fill="#420202" transform="translate(293,292)"/>
<path d="M0 0 C2 3.75 2 3.75 2 6 C2.66 6 3.32 6 4 6 C4.33 5.34 4.66 4.68 5 4 C5 4.66 5 5.32 5 6 C7.31 6.33 9.62 6.66 12 7 C8.17998192 8.37520651 4.92473073 7.74051523 1 7 C0.67 6.67 0.34 6.34 0 6 C-2.69235776 5.76321284 -5.36498156 5.57801975 -8.0625 5.4375 C-8.82111328 5.39431641 -9.57972656 5.35113281 -10.36132812 5.30664062 C-12.24065438 5.20026367 -14.12030244 5.09960066 -16 5 C-16 4.67 -16 4.34 -16 4 C-15.01257813 3.96261719 -14.02515625 3.92523438 -13.0078125 3.88671875 C-11.72648437 3.82097656 -10.44515625 3.75523437 -9.125 3.6875 C-7.84882813 3.62949219 -6.57265625 3.57148438 -5.2578125 3.51171875 C-4.18273437 3.34285156 -3.10765625 3.17398437 -2 3 C-1.34 2.01 -0.68 1.02 0 0 Z " fill="#B2100E" transform="translate(310,288)"/>
<path d="M0 0 C16.8929385 -0.18451025 16.8929385 -0.18451025 24 1 C24 1.66 24 2.32 24 3 C22.18757948 3.02687279 20.37504767 3.04633715 18.5625 3.0625 C17.55316406 3.07410156 16.54382813 3.08570313 15.50390625 3.09765625 C13 3 13 3 12 2 C9.98405418 1.76572222 7.961526 1.58663876 5.9375 1.4375 C4.83277344 1.35371094 3.72804688 1.26992187 2.58984375 1.18359375 C1.73519531 1.12300781 0.88054687 1.06242188 0 1 C0 0.67 0 0.34 0 0 Z " fill="#D84C4B" transform="translate(260,248)"/>
<path d="M0 0 C0.99 0 1.98 0 3 0 C3.66 2.64 4.32 5.28 5 8 C3 7 3 7 2 4 C0.68 6.97 -0.64 9.94 -2 13 C-2.99 12.67 -3.98 12.34 -5 12 C-5 11.34 -5 10.68 -5 10 C-4.01 10 -3.02 10 -2 10 C-1.855625 8.906875 -1.71125 7.81375 -1.5625 6.6875 C-1 3 -1 3 0 0 Z " fill="#DD5556" transform="translate(330,291)"/>
<path d="M0 0 C2.31 0 4.62 0 7 0 C7 0.66 7 1.32 7 2 C5.68 2 4.36 2 3 2 C3 7.28 3 12.56 3 18 C2.67 18 2.34 18 2 18 C1.34 12.06 0.68 6.12 0 0 Z " fill="#D51414" transform="translate(104,263)"/>
<path d="M0 0 C4.29 0 8.58 0 13 0 C13 0.33 13 0.66 13 1 C9.37 1 5.74 1 2 1 C2 4.3 2 7.6 2 11 C1.34 11 0.68 11 0 11 C-1.125 7.75 -1.125 7.75 -2 4 C-1.34 2.68 -0.68 1.36 0 0 Z " fill="#AA1919" transform="translate(365,254)"/>
<path d="M0 0 C0 4.62 0 9.24 0 14 C-2 12 -2 12 -2.125 8.875 C-2.08375 7.92625 -2.0425 6.9775 -2 6 C-2.66 6 -3.32 6 -4 6 C-4.66 4.35 -5.32 2.7 -6 1 C-1.125 0 -1.125 0 0 0 Z " fill="#CD1414" transform="translate(282,254)"/>
<path d="M0 0 C2.1640625 -0.29296875 2.1640625 -0.29296875 4.625 -0.1875 C5.44226563 -0.16042969 6.25953125 -0.13335937 7.1015625 -0.10546875 C8.04128906 -0.05326172 8.04128906 -0.05326172 9 0 C9.33 0.99 9.66 1.98 10 3 C6.7 2.67 3.4 2.34 0 2 C-0.33 4.64 -0.66 7.28 -1 10 C-2.98 10 -4.96 10 -7 10 C-7 9.67 -7 9.34 -7 9 C-5.35 9 -3.7 9 -2 9 C-2.04125 8.071875 -2.0825 7.14375 -2.125 6.1875 C-2 3 -2 3 0 0 Z " fill="#BC181A" transform="translate(327,287)"/>
<path d="M0 0 C2.85442753 -0.05437005 5.70780076 -0.09384974 8.5625 -0.125 C9.36236328 -0.14175781 10.16222656 -0.15851563 10.98632812 -0.17578125 C16.06500335 -0.21723982 20.18811906 0.35943925 25 2 C25 2.33 25 2.66 25 3 C21.37 3 17.74 3 14 3 C14 2.34 14 1.68 14 1 C9.38 1 4.76 1 0 1 C0 0.67 0 0.34 0 0 Z " fill="#EA7E7D" transform="translate(94,248)"/>
<path d="M0 0 C-0.33 0.66 -0.66 1.32 -1 2 C-2.98 2 -4.96 2 -7 2 C-7 2.66 -7 3.32 -7 4 C-9.64 4 -12.28 4 -15 4 C-15 3.01 -15 2.02 -15 1 C-9.92928099 0.28832014 -5.11791642 -0.10662326 0 0 Z " fill="#DC1213" transform="translate(231,251)"/>
<path d="M0 0 C0.33 0 0.66 0 1 0 C1 7.92 1 15.84 1 24 C-0.98 24.99 -0.98 24.99 -3 26 C-3 24.68 -3 23.36 -3 22 C-2.01 22 -1.02 22 0 22 C0 14.74 0 7.48 0 0 Z " fill="#2B0001" transform="translate(245,262)"/>
<path d="M0 0 C2.64 0 5.28 0 8 0 C8.33 1.32 8.66 2.64 9 4 C6.03 4 3.06 4 0 4 C0 2.68 0 1.36 0 0 Z " fill="#E80C0C" transform="translate(144,267)"/>
<path d="M0 0 C10.96551724 -0.77586207 10.96551724 -0.77586207 14.75 2.0625 C16.2445208 5.57462388 16.29650299 8.21958682 16 12 C15.67 12 15.34 12 15 12 C15 10.35 15 8.7 15 7 C14.34 7 13.68 7 13 7 C13 6.01 13 5.02 13 4 C12.34 4 11.68 4 11 4 C11 3.01 11 2.02 11 1 C7.37 1 3.74 1 0 1 C0 0.67 0 0.34 0 0 Z " fill="#2B0000" transform="translate(294,256)"/>
<path d="M0 0 C2.64 0 5.28 0 8 0 C8.66 1.65 9.32 3.3 10 5 C8.35 5 6.7 5 5 5 C5 4.34 5 3.68 5 3 C4.01 3.33 3.02 3.66 2 4 C1.34 2.68 0.68 1.36 0 0 Z " fill="#ED2C2E" transform="translate(146,284)"/>
<path d="M0 0 C0.66 0.66 1.32 1.32 2 2 C1.9765625 5.0390625 1.9765625 5.0390625 1.625 8.625 C1.51414063 9.81351562 1.40328125 11.00203125 1.2890625 12.2265625 C1.19367188 13.14179688 1.09828125 14.05703125 1 15 C-0.32 14.67 -1.64 14.34 -3 14 C-2.67 13.67 -2.34 13.34 -2 13 C-1.79111292 11.00396794 -1.63224523 9.00257059 -1.5 7 C-1.11111111 1.11111111 -1.11111111 1.11111111 0 0 Z " fill="#460704" transform="translate(169,272)"/>
<path d="M0 0 C1.60488281 0.00483398 1.60488281 0.00483398 3.2421875 0.00976562 C4.35335937 0.01814453 5.46453125 0.02652344 6.609375 0.03515625 C8.29933594 0.04192383 8.29933594 0.04192383 10.0234375 0.04882812 C12.80213717 0.06060228 15.58072909 0.07704785 18.359375 0.09765625 C18.359375 0.42765625 18.359375 0.75765625 18.359375 1.09765625 C17.39112793 1.13524048 17.39112793 1.13524048 16.40332031 1.17358398 C13.47181606 1.28980058 10.54061283 1.41241067 7.609375 1.53515625 C6.59359375 1.57447266 5.5778125 1.61378906 4.53125 1.65429688 C3.5515625 1.69619141 2.571875 1.73808594 1.5625 1.78125 C0.21140137 1.83623657 0.21140137 1.83623657 -1.16699219 1.89233398 C-3.62444251 2.0129247 -3.62444251 2.0129247 -5.84082031 2.74243164 C-6.43475586 2.85965576 -7.02869141 2.97687988 -7.640625 3.09765625 C-8.300625 2.43765625 -8.960625 1.77765625 -9.640625 1.09765625 C-6.36436125 0.11545685 -3.41274381 -0.01815289 0 0 Z " fill="#CC1E1C" transform="translate(125.640625,249.90234375)"/>
<path d="M0 0 C2.475 0.495 2.475 0.495 5 1 C5.33 2.65 5.66 4.3 6 6 C4.02 6 2.04 6 0 6 C0 4.02 0 2.04 0 0 Z " fill="#E90D0A" transform="translate(364,290)"/>
<path d="M0 0 C2.24658203 -0.34057617 2.24658203 -0.34057617 5.0078125 -0.29296875 C5.99394531 -0.28330078 6.98007813 -0.27363281 7.99609375 -0.26367188 C9.02863281 -0.23853516 10.06117188 -0.21339844 11.125 -0.1875 C12.68541016 -0.16719727 12.68541016 -0.16719727 14.27734375 -0.14648438 C16.85207627 -0.11105228 19.4257833 -0.06165221 22 0 C22 0.33 22 0.66 22 1 C15.73 1 9.46 1 3 1 C3 1.66 3 2.32 3 3 C1.35 3 -0.3 3 -2 3 C-1.34 2.01 -0.68 1.02 0 0 Z " fill="#D32827" transform="translate(148,303)"/>
<path d="M0 0 C0.33 1.32 0.66 2.64 1 4 C1.66 4 2.32 4 3 4 C3 5.65 3 7.3 3 9 C4.32 9 5.64 9 7 9 C7 8.34 7 7.68 7 7 C7.66 7 8.32 7 9 7 C8.67 8.32 8.34 9.64 8 11 C6.02 11 4.04 11 2 11 C0.19769832 7.17010894 -0.19622241 4.21878192 0 0 Z " fill="#350000" transform="translate(172,276)"/>
<path d="M0 0 C0.33 0 0.66 0 1 0 C1 8.25 1 16.5 1 25 C0.67 25 0.34 25 0 25 C-0.06058594 23.94039063 -0.12117188 22.88078125 -0.18359375 21.7890625 C-0.26800127 20.40102779 -0.35264917 19.01300768 -0.4375 17.625 C-0.47681641 16.92632812 -0.51613281 16.22765625 -0.55664062 15.5078125 C-0.74280134 11.62639508 -0.74280134 11.62639508 -2 8 C-1.66015625 6.0546875 -1.66015625 6.0546875 -1.0625 3.875 C-0.86785156 3.15054687 -0.67320313 2.42609375 -0.47265625 1.6796875 C-0.31667969 1.12539063 -0.16070312 0.57109375 0 0 Z " fill="#D81415" transform="translate(128,275)"/>
<path d="M0 0 C0.66 0.33 1.32 0.66 2 1 C1.34 4.63 0.68 8.26 0 12 C1.98 12 3.96 12 6 12 C6 12.66 6 13.32 6 14 C3.69 14 1.38 14 -1 14 C-2.13732426 10.59598052 -1.83989957 8.22543336 -1.0625 4.75 C-0.86785156 3.85796875 -0.67320312 2.9659375 -0.47265625 2.046875 C-0.31667969 1.37140625 -0.16070312 0.6959375 0 0 Z " fill="#3B0302" transform="translate(328,268)"/>
<path d="M0 0 C1.66611905 -0.042721 3.33382885 -0.04063832 5 0 C6 1 6 1 6.0625 3.5625 C6.041875 4.366875 6.02125 5.17125 6 6 C4.35 6 2.7 6 1 6 C0.67 4.02 0.34 2.04 0 0 Z " fill="#9B1215" transform="translate(261,262)"/>
<path d="M0 0 C2.31 0 4.62 0 7 0 C6.34 0.66 5.68 1.32 5 2 C4.01 2 3.02 2 2 2 C2 5.3 2 8.6 2 12 C1.34 12 0.68 12 0 12 C0 8.04 0 4.08 0 0 Z " fill="#DD787C" transform="translate(84,249)"/>
<path d="M0 0 C2.97 0 5.94 0 9 0 C8.34 1.32 7.68 2.64 7 4 C3.04 3.67 -0.92 3.34 -5 3 C-5 2.67 -5 2.34 -5 2 C-3.35 1.67 -1.7 1.34 0 1 C0 0.67 0 0.34 0 0 Z " fill="#DB1616" transform="translate(252,291)"/>
<path d="M0 0 C3.07921132 -0.25660094 5.21136993 -0.39431504 8 1 C8.4140625 3.72265625 8.4140625 3.72265625 8.625 7.0625 C8.69976562 8.16722656 8.77453125 9.27195312 8.8515625 10.41015625 C8.90054688 11.26480469 8.94953125 12.11945313 9 13 C8.34 13 7.68 13 7 13 C7 9.37 7 5.74 7 2 C2.545 2.495 2.545 2.495 -2 3 C-1.34 2.01 -0.68 1.02 0 0 Z " fill="#CD2423" transform="translate(174,291)"/>
<path d="M0 0 C-2.94951622 2.51255085 -5.1280246 3.63124044 -9 4 C-12.3125 3.5625 -12.3125 3.5625 -15 3 C-15 2.34 -15 1.68 -15 1 C-13.0641649 0.63684334 -11.12624752 0.28477269 -9.1875 -0.0625 C-8.10855469 -0.25972656 -7.02960938 -0.45695312 -5.91796875 -0.66015625 C-3 -1 -3 -1 0 0 Z " fill="#E70D0D" transform="translate(121,290)"/>
<path d="M0 0 C1.79378179 2.69067269 2.97313958 5.08578257 4.1875 8.0625 C4.55230469 8.94035156 4.91710937 9.81820313 5.29296875 10.72265625 C6 13 6 13 5 15 C0.35677486 10.50655632 0.23817524 6.13301236 0 0 Z " fill="#3F0202" transform="translate(341,267)"/>
<path d="M0 0 C1.32 1.65 2.64 3.3 4 5 C3.67 5.66 3.34 6.32 3 7 C2.67 7 2.34 7 2 7 C1.67 10.96 1.34 14.92 1 19 C0.67 19 0.34 19 0 19 C0 12.73 0 6.46 0 0 Z " fill="#AE1518" transform="translate(362,278)"/>
<path d="M0 0 C0.268125 0.639375 0.53625 1.27875 0.8125 1.9375 C1.88667752 4.33131686 1.88667752 4.33131686 5 5 C5.05416188 6.60379341 5.09286638 8.20811406 5.125 9.8125 C5.14820313 10.70582031 5.17140625 11.59914063 5.1953125 12.51953125 C5 15 5 15 3 18 C3.03480469 17.40832031 3.06960938 16.81664062 3.10546875 16.20703125 C3.28040319 11.10061156 2.95823071 8.31408644 0 4 C0 2.68 0 1.36 0 0 Z " fill="#BF1618" transform="translate(308,270)"/>
<path d="M0 0 C1.65 0 3.3 0 5 0 C4.01 0.33 3.02 0.66 2 1 C2.33 2.32 2.66 3.64 3 5 C6.3 5.33 9.6 5.66 13 6 C13 6.33 13 6.66 13 7 C11.02090602 7.02686553 9.04171029 7.04633375 7.0625 7.0625 C5.96035156 7.07410156 4.85820312 7.08570313 3.72265625 7.09765625 C1 7 1 7 0 6 C-0.04080783 4.00041636 -0.04254356 1.99954746 0 0 Z " fill="#A31413" transform="translate(142,266)"/>
<path d="M0 0 C0.99 0.33 1.98 0.66 3 1 C3.28780586 4.05074215 3.45787911 6.96183742 3 10 C0.5 12.0625 0.5 12.0625 -2 13 C-2 12.01 -2 11.02 -2 10 C-2.66 9.67 -3.32 9.34 -4 9 C-2.35 9 -0.7 9 1 9 C1.26932521 4.34947128 1.26932521 4.34947128 0 0 Z " fill="#260001" transform="translate(298,261)"/>
<path d="M0 0 C0.33 0.99 0.66 1.98 1 3 C0.01 3.99 -0.98 4.98 -2 6 C-0.68 6.33 0.64 6.66 2 7 C-0.31 7.33 -2.62 7.66 -5 8 C-4.45773019 4.20411134 -2.79872437 2.52788007 0 0 Z " fill="#D71317" transform="translate(245,286)"/>
<path d="M0 0 C2.97 0 5.94 0 9 0 C8.01 1.485 8.01 1.485 7 3 C3.875 3.1875 3.875 3.1875 1 3 C0.67 2.01 0.34 1.02 0 0 Z " fill="#E70F0C" transform="translate(356,299)"/>
<path d="M0 0 C2.97 0.495 2.97 0.495 6 1 C6 1.66 6 2.32 6 3 C4.35 2.67 2.7 2.34 1 2 C1 3.65 1 5.3 1 7 C0.01 7.495 0.01 7.495 -1 8 C-1.93065133 5.39417629 -2.14917407 4.35801776 -1.0625 1.75 C-0.711875 1.1725 -0.36125 0.595 0 0 Z " fill="#E40E11" transform="translate(311,266)"/>
<path d="M0 0 C1.32 0.33 2.64 0.66 4 1 C4 2.65 4 4.3 4 6 C2.68 6 1.36 6 0 6 C0 4.02 0 2.04 0 0 Z " fill="#DF1111" transform="translate(295,263)"/>
<path d="M0 0 C1.5625 1.125 1.5625 1.125 3 3 C2.6875 6.1875 2.6875 6.1875 2 9 C0.02 9 -1.96 9 -4 9 C-2.68 8.67 -1.36 8.34 0 8 C0 5.36 0 2.72 0 0 Z " fill="#E10F11" transform="translate(326,292)"/>
<path d="M0 0 C0.66 0 1.32 0 2 0 C2.33 1.32 2.66 2.64 3 4 C2.34 4 1.68 4 1 4 C1 7.63 1 11.26 1 15 C0.67 15 0.34 15 0 15 C0 10.05 0 5.1 0 0 Z " fill="#AA1B20" transform="translate(263,275)"/>
<path d="M0 0 C0.99 0 1.98 0 3 0 C3 2.31 3 4.62 3 7 C2.01 7 1.02 7 0 7 C0 4.69 0 2.38 0 0 Z " fill="#E80D0F" transform="translate(295,277)"/>
<path d="M0 0 C0.625 1.875 0.625 1.875 1 4 C0.34 4.66 -0.32 5.32 -1 6 C-1.99 6 -2.98 6 -4 6 C-4 4.68 -4 3.36 -4 2 C-2.68 1.34 -1.36 0.68 0 0 Z " fill="#E31011" transform="translate(280,272)"/>
<path d="M0 0 C1.485 0.99 1.485 0.99 3 2 C3.66 1.67 4.32 1.34 5 1 C4.45276317 4.37462715 3.9451 6.08235 2 9 C0.50178941 5.62902617 0 3.79557881 0 0 Z " fill="#BF1816" transform="translate(176,261)"/>
<path d="M0 0 C1.32 0 2.64 0 4 0 C5.75 2 5.75 2 7 4 C6.67 4.66 6.34 5.32 6 6 C4.68 5.67 3.36 5.34 2 5 C2 3.68 2 2.36 2 1 C1.34 0.67 0.68 0.34 0 0 Z " fill="#E34B4E" transform="translate(174,248)"/>
<path d="M0 0 C3.41021743 0.78697325 6.68885166 1.87119943 10 3 C10 3.66 10 4.32 10 5 C7.33333333 4.33333333 4.66666667 3.66666667 2 3 C2 2.34 2 1.68 2 1 C1.34 0.67 0.68 0.34 0 0 Z " fill="#E36C6B" transform="translate(267,299)"/>
<path d="M0 0 C3.96 0.33 7.92 0.66 12 1 C12 1.33 12 1.66 12 2 C11.39671875 1.98839844 10.7934375 1.97679687 10.171875 1.96484375 C9.37265625 1.95582031 8.5734375 1.94679688 7.75 1.9375 C6.96109375 1.92589844 6.1721875 1.91429687 5.359375 1.90234375 C3.09308998 1.99614694 1.1711105 2.36758937 -1 3 C-0.67 2.01 -0.34 1.02 0 0 Z " fill="#DD6164" transform="translate(241,293)"/>
<path d="M0 0 C2 2 2 2 2.125 4.625 C2.08375 5.40875 2.0425 6.1925 2 7 C1.01 7.33 0.02 7.66 -1 8 C-1.125 2.25 -1.125 2.25 0 0 Z " fill="#B4171B" transform="translate(330,267)"/>
<path d="M0 0 C1.5 1.25 1.5 1.25 3 3 C3 4.32 3 5.64 3 7 C2.01 7 1.02 7 0 7 C0 4.69 0 2.38 0 0 Z " fill="#BE1514" transform="translate(155,273)"/>
</svg>
